<svg width="16" height="8" viewBox="0 0 16 8" fill="none" xmlns="http://www.w3.org/2000/svg">
<path d="M15.8167 3.55759C15.8165 3.5574 15.8163 3.55718 15.8161 3.55699L12.5504 0.306998C12.3057 0.0635293 11.91 0.0644353 11.6665 0.309122C11.423 0.553778 11.4239 0.949497 11.6686 1.193L13.8612 3.37499H0.625C0.279813 3.37499 0 3.65481 0 3.99999C0 4.34518 0.279813 4.62499 0.625 4.62499H13.8612L11.6686 6.80699C11.4239 7.05049 11.423 7.44621 11.6665 7.69086C11.91 7.93558 12.3058 7.93642 12.5504 7.69299L15.8162 4.44299C15.8163 4.4428 15.8165 4.44259 15.8167 4.4424C16.0615 4.19809 16.0607 3.80109 15.8167 3.55759Z" fill="#464646"/>
</svg>
