<svg width="16" height="16" viewBox="0 0 16 16" fill="none" xmlns="http://www.w3.org/2000/svg">
<path d="M3.24039 5.99746V7.90131V7.96477C3.26154 8.19746 3.47308 8.38784 3.70577 8.38784C3.95962 8.38784 4.17116 8.17631 4.17116 7.92246V6.01861V5.95515C4.15 5.72246 3.93846 5.53208 3.70577 5.53208C3.45192 5.53208 3.24039 5.74361 3.24039 5.99746ZM11.8077 5.06669V6.97054V7.034C11.8288 7.26669 12.0404 7.45708 12.2731 7.45708C12.5269 7.45708 12.7385 7.24554 12.7385 6.99169V5.08785V5.02438C12.7173 4.79169 12.5058 4.60131 12.2731 4.60131C12.0192 4.58015 11.8077 4.79169 11.8077 5.06669ZM7.53462 4.11477V7.92246V7.98592C7.55577 8.21861 7.76731 8.409 8 8.409C8.25385 8.409 8.46539 8.19746 8.46539 7.94361V4.13592V4.07246C8.44423 3.83977 8.23269 3.64938 8 3.64938C7.74616 3.62823 7.53462 3.83977 7.53462 4.11477ZM6.56154 13.1475H9.41731V15.0513H6.56154V13.1475ZM1.82308 12.1955H5.63077V15.0513H1.82308V12.1955V12.1955ZM10.3692 12.1955H14.1769V15.0513H10.3692V12.1955ZM6.56154 11.2436H9.41731V12.1955H6.56154V11.2436ZM1.82308 3.62823H5.63077V11.2436H1.82308V3.62823V3.62823ZM10.3692 2.67631H14.1769V11.2436H10.3692V2.67631ZM6.56154 1.72438H9.41731V10.2917H6.56154V1.72438ZM6.09616 0.772461H6.03269C5.8 0.793615 5.63077 1.00515 5.63077 1.23785V2.67631H1.33654C1.08269 2.67631 0.871155 2.88785 0.871155 3.14169V15.5167C0.871155 15.7705 1.08269 15.9821 1.33654 15.9821H14.6635C14.9173 15.9821 15.1288 15.7705 15.1288 15.5167V2.18977V2.12631C15.0865 1.89361 14.8962 1.72438 14.6635 1.72438H10.3692V1.259C10.3692 1.00515 10.1577 0.793615 9.90385 0.793615H6.09616V0.772461Z" fill="#464646"/>
</svg>
