<svg width="56" height="56" viewBox="0 0 56 56" fill="none" xmlns="http://www.w3.org/2000/svg">
<path d="M0 0V56H56V0H0ZM53.6122 53.6122H2.38778V2.38778H53.6122V53.6122Z" fill="white"/>
<path d="M5.80615 23.1972L13.1445 25.2778V34.2222L13.5956 34.5839C17.359 37.6126 21.9824 39.3762 26.8068 39.6234C31.6313 39.8706 36.4106 38.5888 40.4639 35.9606V39.4606L37.9128 43.8784L39.9856 45.0761L41.6578 42.1711L43.3339 45.0761L45.4067 43.8784L42.8556 39.4606V25.0717L50.2017 22.9445C50.4531 22.8726 50.674 22.7202 50.8303 22.5106C50.9867 22.301 51.07 22.0459 51.0674 21.7845C51.0647 21.523 50.9763 21.2696 50.8157 21.0633C50.6551 20.8569 50.4312 20.709 50.1783 20.6422L27.8717 14.6611L5.80615 20.8834C5.55635 20.9552 5.3367 21.1064 5.18035 21.314C5.02401 21.5217 4.93945 21.7745 4.93945 22.0345C4.93945 22.2944 5.02401 22.5473 5.18035 22.7549C5.3367 22.9626 5.55635 23.1137 5.80615 23.1856V23.1972ZM28.0584 37.2322C23.5449 37.2528 19.1505 35.7849 15.5556 33.0556V25.9428L27.5528 29.3261L27.8717 29.4156L40.4795 25.9156V33.0284C36.9101 35.7501 32.547 37.2268 28.0584 37.2322ZM27.8678 17.1539L45.4145 21.8206L41.2534 23.0261L28.2489 20.2884C28.0931 20.2485 27.9308 20.2405 27.7719 20.2649C27.6129 20.2893 27.4605 20.3456 27.3238 20.4303C27.1871 20.5151 27.069 20.6266 26.9764 20.7582C26.8839 20.8897 26.8189 21.0386 26.7854 21.1959C26.7518 21.3532 26.7504 21.5156 26.7812 21.6735C26.812 21.8314 26.8743 21.9814 26.9645 22.1145C27.0547 22.2477 27.1709 22.3613 27.3061 22.4484C27.4412 22.5356 27.5926 22.5945 27.7511 22.6217L36.3845 24.4534L27.8561 26.9306L13.1445 22.7734L10.535 22.0384L27.8678 17.1539Z" fill="white"/>
</svg>
