<svg width="16" height="17" viewBox="0 0 16 17" fill="none" xmlns="http://www.w3.org/2000/svg">
<path d="M9.62883 12.6185H6.26537C6.01153 12.6185 5.79999 12.8301 5.79999 13.0839C5.79999 13.3378 6.01153 13.5493 6.26537 13.5493H9.62883C9.88268 13.5493 10.0942 13.3378 10.0942 13.0839C10.0942 12.8301 9.88268 12.6185 9.62883 12.6185Z" fill="#464646"/>
<path d="M9.1 13.9088H6.70962C6.45577 13.9088 6.24423 14.1204 6.24423 14.3742C6.24423 14.628 6.45577 14.8396 6.70962 14.8396H9.1C9.35384 14.8396 9.56538 14.628 9.56538 14.3742C9.56538 14.1204 9.35384 13.9088 9.1 13.9088Z" fill="#464646"/>
<path d="M8.59229 15.1781H7.28075C7.02691 15.1781 6.81537 15.3896 6.81537 15.6435C6.81537 15.8973 7.02691 16.1089 7.28075 16.1089H8.59229C8.84614 16.1089 9.05767 15.8973 9.05767 15.6435C9.05767 15.3896 8.84614 15.1781 8.59229 15.1781Z" fill="#464646"/>
<path d="M10.7288 5.68005C10.2635 5.13005 9.4173 4.45312 7.97884 4.45312C6.54038 4.45312 5.69423 5.10889 5.22884 5.68005C4.7 6.33582 4.38269 7.22428 4.38269 8.13389C4.38269 8.98005 4.76346 9.59351 5.12307 10.1858C5.18654 10.2916 5.25 10.3762 5.31346 10.482C5.58846 10.905 5.82115 11.2435 5.82115 11.8781C5.82115 12.132 6.03269 12.3435 6.28654 12.3435C6.54038 12.3435 6.75192 12.132 6.75192 11.8781C6.75192 10.9897 6.43461 10.482 6.075 9.97428C6.01154 9.88966 5.96923 9.80505 5.90577 9.72043C5.58846 9.19159 5.29231 8.74736 5.29231 8.1762C5.29231 5.99736 6.96346 5.40505 7.95769 5.40505C8.95192 5.40505 10.6231 5.9762 10.6231 8.1762C10.6231 8.74736 10.3481 9.21274 10.0096 9.74159C9.94615 9.8262 9.90384 9.91082 9.84038 9.99543C9.50192 10.5243 9.16346 11.0108 9.16346 11.8993C9.16346 12.1531 9.375 12.3647 9.62884 12.3647C9.88269 12.3647 10.0942 12.1531 10.0942 11.8993C10.0942 11.2647 10.3269 10.9262 10.6019 10.5031C10.6654 10.4185 10.7288 10.3127 10.7923 10.207C11.1519 9.61466 11.5327 9.0012 11.5327 8.15505C11.575 7.22428 11.2577 6.33582 10.7288 5.68005Z" fill="#464646"/>
<path d="M7.95766 3.73386C8.21151 3.73386 8.42305 3.52232 8.42305 3.26847V1.32232C8.42305 1.06847 8.21151 0.856934 7.95766 0.856934C7.70382 0.856934 7.49228 1.06847 7.49228 1.32232V3.26847C7.49228 3.52232 7.70382 3.73386 7.95766 3.73386Z" fill="#464646"/>
<path d="M4.04422 5.36275C4.12883 5.42621 4.2346 5.46852 4.34037 5.46852C4.46729 5.46852 4.61537 5.40506 4.69999 5.29929C4.86922 5.10891 4.82691 4.81275 4.63652 4.64352L3.15575 3.39544C3.07114 3.31083 2.94422 3.28967 2.81729 3.28967C2.69037 3.31083 2.5846 3.35313 2.49998 3.4589C2.41537 3.54352 2.37306 3.67044 2.39422 3.79737C2.41537 3.92429 2.45768 4.03006 2.56345 4.11467L4.04422 5.36275Z" fill="#464646"/>
<path d="M3.72691 8.07036C3.72691 7.81652 3.51538 7.60498 3.26153 7.60498H1.31538C1.06153 7.60498 0.849991 7.81652 0.849991 8.07036C0.849991 8.32421 1.06153 8.53575 1.31538 8.53575H3.26153C3.51538 8.53575 3.72691 8.32421 3.72691 8.07036Z" fill="#464646"/>
<path d="M4.44612 10.6511C4.3192 10.63 4.21343 10.6723 4.10766 10.7569L2.62689 12.005C2.54228 12.0896 2.47882 12.1954 2.45766 12.3223C2.43651 12.4492 2.47882 12.555 2.56343 12.6608C2.64805 12.7665 2.77497 12.83 2.92305 12.83C3.02881 12.83 3.13458 12.7877 3.2192 12.7242L4.69997 11.4761C4.78458 11.3915 4.84804 11.2858 4.8692 11.1588C4.89035 11.0319 4.84804 10.9261 4.76343 10.8204C4.67881 10.7146 4.55189 10.6511 4.44612 10.6511Z" fill="#464646"/>
<path d="M11.9558 10.6723C11.8712 10.5877 11.7442 10.5454 11.6173 10.5665C11.4904 10.5877 11.3846 10.63 11.3 10.7358C11.2154 10.8415 11.1731 10.9473 11.1942 11.0742C11.2154 11.2012 11.2577 11.3069 11.3635 11.3915L12.8442 12.6396C12.9288 12.7031 13.0346 12.7454 13.1404 12.7454C13.2673 12.7454 13.4154 12.6819 13.5 12.5762C13.6692 12.3858 13.6269 12.0896 13.4365 11.9204L11.9558 10.6723Z" fill="#464646"/>
<path d="M14.6846 7.49927H12.7385C12.4846 7.49927 12.2731 7.71081 12.2731 7.96465C12.2731 8.2185 12.4846 8.43004 12.7385 8.43004H14.6846C14.9385 8.43004 15.15 8.2185 15.15 7.96465C15.1288 7.71081 14.9385 7.49927 14.6846 7.49927Z" fill="#464646"/>
<path d="M11.5961 5.38382C11.7019 5.38382 11.8077 5.34151 11.8923 5.27805L13.3731 4.02998C13.4577 3.94536 13.5211 3.83959 13.5423 3.71267C13.5634 3.58574 13.5211 3.47998 13.4365 3.37421C13.3519 3.26844 13.2461 3.22613 13.1192 3.20498C12.9923 3.18382 12.8865 3.22613 12.7807 3.31074L11.3 4.55882C11.1096 4.72805 11.0884 5.00305 11.2365 5.21459C11.3423 5.32036 11.4692 5.38382 11.5961 5.38382Z" fill="#464646"/>
</svg>
