<svg width="32" height="30" viewBox="0 0 32 30" fill="none" xmlns="http://www.w3.org/2000/svg">
<path d="M23.5 0.875C21.7636 0.875 20.1716 1.42525 18.7683 2.5105C17.423 3.55094 16.5273 4.87612 16 5.83975C15.4727 4.87606 14.577 3.55094 13.2317 2.5105C11.8284 1.42525 10.2364 0.875 8.5 0.875C3.65425 0.875 0 4.83856 0 10.0946C0 15.773 4.55894 19.6581 11.4606 25.5395C12.6326 26.5383 13.961 27.6704 15.3418 28.8779C15.5238 29.0372 15.7575 29.125 16 29.125C16.2425 29.125 16.4763 29.0372 16.6583 28.8779C18.0391 27.6703 19.3675 26.5383 20.5402 25.5389C27.4411 19.6581 32 15.773 32 10.0946C32 4.83856 28.3457 0.875 23.5 0.875Z" fill="#E0301E"/>
</svg>
