<svg width="24" height="21" viewBox="0 0 24 21" fill="none" xmlns="http://www.w3.org/2000/svg">
<path d="M12 18.318L20.3077 10.1949C21.1693 9.36413 21.6616 8.22567 21.6923 6.9949C21.7231 5.76413 21.2923 4.5949 20.4923 3.70259C19.6616 2.81029 18.5231 2.28721 17.3539 2.28721C16.2462 2.28721 15.2 2.71798 14.4 3.51798L12 5.82567L11.0154 4.87183L9.56926 3.45644C8.76926 2.65644 7.72311 2.22567 6.61542 2.22567C5.44619 2.22567 4.27696 2.74875 3.47696 3.64106C1.81542 5.48721 1.90773 8.41029 3.66157 10.1334L12 18.318ZM2.70773 11.1795C0.430803 8.93336 0.307726 5.14875 2.46157 2.74875C3.5385 1.54875 5.04619 0.871826 6.61542 0.871826C8.09234 0.871826 9.47696 1.45644 10.5231 2.47183L11.9693 3.88721L13.4154 2.47183C14.4923 1.42567 15.877 0.871826 17.3231 0.871826C18.8923 0.871826 20.4 1.54875 21.477 2.74875C22.5231 3.91798 23.077 5.42567 23.0154 7.02567C22.9539 8.62567 22.3385 10.1026 21.2 11.1795L12 20.2564L2.70773 11.1795Z" fill="#7D7D7D"/>
</svg>
