<svg width="14" height="17" viewBox="0 0 14 17" fill="none" xmlns="http://www.w3.org/2000/svg">
<path d="M10.8077 9.3396H3.19229V10.2915H10.8077V9.3396Z" fill="#464646"/>
<path d="M6.99998 3.62805H3.19229V4.57997H6.99998V3.62805Z" fill="#464646"/>
<path d="M10.8077 6.48389H3.19229V7.43581H10.8077V6.48389Z" fill="#464646"/>
<path d="M12.2038 0.772339H1.79614C1.24614 0.772339 0.80191 1.21657 0.80191 1.78772V14.9877C0.80191 15.5589 1.24614 16.0031 1.79614 16.0031H12.1827C12.7327 16.0031 13.1769 15.5377 13.1769 14.9877V1.78772C13.1981 1.21657 12.7327 0.772339 12.2038 0.772339ZM12.2461 14.9877C12.2461 15.03 12.225 15.0512 12.2038 15.0512H1.79614C1.77499 15.0512 1.75383 15.03 1.75383 14.9877V1.78772C1.75383 1.74542 1.77499 1.72426 1.79614 1.72426H12.1827C12.2038 1.72426 12.225 1.74542 12.225 1.78772V14.9877H12.2461Z" fill="#464646"/>
</svg>
