<svg width="16" height="15" viewBox="0 0 16 15" fill="none" xmlns="http://www.w3.org/2000/svg">
<path d="M8.00002 6.77641C8.61239 6.77683 9.21111 6.59557 9.72042 6.25557C10.2297 5.91558 10.6267 5.43213 10.8612 4.86642C11.0956 4.30071 11.1569 3.67816 11.0374 3.07757C10.9179 2.47698 10.6229 1.92535 10.1897 1.49249C9.75659 1.05963 9.20475 0.765006 8.60408 0.645899C8.00341 0.526791 7.38091 0.588559 6.81536 0.823385C6.24981 1.05821 5.76663 1.45554 5.42699 1.96508C5.08734 2.47462 4.90649 3.07347 4.90733 3.68583C4.90789 4.5057 5.23397 5.29179 5.81391 5.87133C6.39384 6.45086 7.18015 6.77641 8.00002 6.77641ZM8.00002 1.54083C8.42384 1.54041 8.83827 1.66568 9.1909 1.9008C9.54353 2.13591 9.81852 2.47031 9.98109 2.86171C10.1437 3.25312 10.1865 3.68394 10.1043 4.0997C10.022 4.51546 9.81827 4.89748 9.51888 5.19747C9.21949 5.49745 8.83786 5.70192 8.42227 5.78501C8.00667 5.8681 7.57576 5.82609 7.18404 5.66429C6.79232 5.50249 6.45738 5.22816 6.22157 4.876C5.98576 4.52383 5.85967 4.10965 5.85925 3.68583C5.85897 3.40442 5.91413 3.12572 6.02156 2.86562C6.12899 2.60553 6.2866 2.36914 6.48539 2.16996C6.68418 1.97078 6.92025 1.8127 7.18013 1.70476C7.44002 1.59681 7.71861 1.54111 8.00002 1.54083V1.54083ZM1.73425 14.1866H14.2658C14.5156 14.1864 14.7605 14.1166 14.9729 13.9851C15.1854 13.8536 15.357 13.6655 15.4686 13.4419C15.5801 13.2184 15.6272 12.9682 15.6046 12.7193C15.582 12.4705 15.4905 12.2329 15.3404 12.0331C14.0394 10.3408 11.2408 9.1541 8.00002 9.1541C4.75925 9.1541 1.9606 10.3303 0.659636 12.0331C0.509566 12.2329 0.418089 12.4705 0.395455 12.7193C0.372821 12.9682 0.419925 13.2184 0.531487 13.4419C0.64305 13.6655 0.814663 13.8536 1.0271 13.9851C1.23953 14.1166 1.4844 14.1864 1.73425 14.1866V14.1866ZM1.41694 12.6128C2.58041 11.0897 5.16329 10.106 8.00002 10.106C10.8368 10.106 13.4196 11.0897 14.5831 12.6128C14.6275 12.6685 14.6547 12.736 14.6615 12.807C14.6682 12.878 14.6542 12.9494 14.6212 13.0126C14.5878 13.0777 14.5368 13.132 14.4739 13.1694C14.411 13.2069 14.3389 13.2258 14.2658 13.2241H1.73425C1.66112 13.2258 1.589 13.2069 1.52614 13.1694C1.46328 13.132 1.41224 13.0777 1.37887 13.0126C1.34581 12.9494 1.33181 12.878 1.33857 12.807C1.34533 12.736 1.37256 12.6685 1.41694 12.6128V12.6128Z" fill="#464646"/>
</svg>
