<svg width="24" height="23" viewBox="0 0 24 23" fill="none" xmlns="http://www.w3.org/2000/svg">
<path d="M19.8185 15.6657C19.3005 15.6665 18.7903 15.7909 18.33 16.0285C17.8698 16.2661 17.4729 16.6101 17.1723 17.0319L7.41848 11.918C7.44721 11.683 7.44721 11.4454 7.41848 11.2103L17.1693 6.09649C17.6231 6.72509 18.2865 7.17088 19.04 7.35352C19.7935 7.53616 20.5874 7.44363 21.2787 7.0926C21.97 6.74157 22.5131 6.15514 22.8102 5.43903C23.1073 4.72291 23.1388 3.92422 22.899 3.18693C22.6593 2.44964 22.164 1.82226 21.5025 1.41788C20.841 1.01349 20.0568 0.858716 19.2913 0.981444C18.5258 1.10417 17.8293 1.49633 17.3274 2.08723C16.8255 2.67813 16.5511 3.42889 16.5539 4.20418C16.5543 4.33174 16.5625 4.45916 16.5785 4.58572L6.8431 9.69341C6.44535 9.12618 5.87716 8.70048 5.22102 8.47812C4.56489 8.25576 3.85495 8.24831 3.1943 8.45686C2.53364 8.66541 1.95665 9.0791 1.54709 9.63786C1.13753 10.1966 0.916718 10.8714 0.916718 11.5642C0.916718 12.257 1.13753 12.9317 1.54709 13.4905C1.95665 14.0493 2.53364 14.463 3.1943 14.6715C3.85495 14.8801 4.56489 14.8726 5.22102 14.6502C5.87716 14.4279 6.44535 14.0022 6.8431 13.435L16.5846 18.5426C16.5687 18.6692 16.5605 18.7966 16.56 18.9242C16.56 19.5686 16.7511 20.1986 17.1092 20.7345C17.4672 21.2703 17.9761 21.688 18.5715 21.9346C19.1669 22.1812 19.8221 22.2458 20.4542 22.12C21.0863 21.9943 21.6669 21.684 22.1226 21.2283C22.5783 20.7726 22.8886 20.192 23.0143 19.5599C23.1401 18.9278 23.0755 18.2726 22.8289 17.6772C22.5823 17.0818 22.1646 16.5729 21.6288 16.2149C21.0929 15.8568 20.4629 15.6657 19.8185 15.6657ZM19.8185 2.55803C20.1449 2.55742 20.4642 2.65371 20.7359 2.83469C21.0076 3.01568 21.2195 3.27322 21.3447 3.5747C21.4699 3.87619 21.5028 4.20805 21.4392 4.52825C21.3757 4.84846 21.2186 5.14261 20.9877 5.37344C20.7569 5.60427 20.4628 5.76141 20.1426 5.82495C19.8223 5.88849 19.4905 5.85557 19.189 5.73036C18.8875 5.60515 18.63 5.39329 18.449 5.1216C18.268 4.84992 18.1717 4.53063 18.1723 4.20418C18.1731 3.76785 18.3468 3.34961 18.6554 3.04107C18.9639 2.73254 19.3821 2.55884 19.8185 2.55803V2.55803ZM4.18156 13.2134C3.85524 13.214 3.53608 13.1178 3.26446 12.937C2.99284 12.7561 2.78098 12.4988 2.65568 12.1975C2.53038 11.8961 2.49728 11.5644 2.56057 11.2443C2.62386 10.9242 2.78069 10.6301 3.01121 10.3991C3.24174 10.1681 3.5356 10.0108 3.8556 9.94687C4.1756 9.88298 4.50737 9.91546 4.8089 10.0402C5.11044 10.1649 5.3682 10.3763 5.54955 10.6476C5.73091 10.9189 5.82771 11.2379 5.82771 11.5642C5.8269 12.0008 5.65331 12.4194 5.34486 12.7284C5.03641 13.0374 4.61818 13.2118 4.18156 13.2134V13.2134ZM19.8185 20.5703C19.4922 20.5703 19.1732 20.4735 18.9019 20.2922C18.6306 20.1108 18.4192 19.8531 18.2945 19.5515C18.1698 19.25 18.1373 18.9182 18.2012 18.5982C18.2651 18.2782 18.4224 17.9844 18.6534 17.7538C18.8844 17.5233 19.1785 17.3665 19.4986 17.3032C19.8187 17.2399 20.1504 17.273 20.4518 17.3983C20.7531 17.5236 21.0104 17.7355 21.1913 18.0071C21.3721 18.2787 21.4683 18.5979 21.4677 18.9242C21.4669 19.3611 21.2928 19.7798 20.9836 20.0884C20.6744 20.397 20.2554 20.5703 19.8185 20.5703V20.5703Z" fill="#7D7D7D"/>
</svg>
