<svg width="56" height="56" viewBox="0 0 56 56" fill="none" xmlns="http://www.w3.org/2000/svg">
<g clip-path="url(#clip0)">
<path d="M51.2594 5.48334C51.0937 3.97734 50.378 2.58547 49.2495 1.57444C48.1211 0.563413 46.6593 0.00433481 45.1442 0.00433481C43.6291 0.00433481 42.1672 0.563413 41.0388 1.57444C39.9104 2.58547 39.1947 3.97734 39.0289 5.48334H34.0589C33.8972 3.97477 33.1835 2.57923 32.0549 1.56517C30.9264 0.551097 29.4628 -0.0098877 27.9456 -0.0098877C26.4283 -0.0098877 24.9647 0.551097 23.8362 1.56517C22.7076 2.57923 21.9939 3.97477 21.8322 5.48334H16.8622C16.6964 3.97734 15.9807 2.58547 14.8523 1.57444C13.7239 0.563413 12.2621 0.00433481 10.7469 0.00433481C9.23184 0.00433481 7.77001 0.563413 6.64158 1.57444C5.51314 2.58547 4.79746 3.97734 4.63167 5.48334H0V56H56V5.48334H51.2594ZM45.1461 2.37223C46.0301 2.37419 46.8853 2.68688 47.5621 3.2556C48.2389 3.82433 48.6942 4.61288 48.8483 5.48334H41.4594C41.6163 4.61797 42.0706 3.8346 42.7437 3.26865C43.4169 2.7027 44.2667 2.38975 45.1461 2.3839V2.37223ZM27.9456 2.37223C28.8298 2.37481 29.6851 2.68763 30.3624 3.25616C31.0397 3.8247 31.4959 4.6129 31.6517 5.48334H24.2394C24.3976 4.61504 24.8549 3.82956 25.5319 3.26335C26.209 2.69714 27.063 2.38597 27.9456 2.3839V2.37223ZM10.7489 2.37223C11.6329 2.37419 12.4881 2.68688 13.1649 3.2556C13.8416 3.82433 14.2969 4.61288 14.4511 5.48334H7.06222C7.21906 4.61797 7.67333 3.8346 8.3465 3.26865C9.01968 2.7027 9.86944 2.38975 10.7489 2.3839V2.37223ZM53.6122 7.87112V15.1045H2.38778V7.87112H53.6122ZM29.2017 27.125H40.2072V34.3583H29.2017V27.125ZM26.81 34.3583H15.8006V27.125H26.81V34.3583ZM29.2017 24.7333V17.5H40.2072V24.7333H29.2017ZM26.81 24.7333H15.8006V17.5H26.81V24.7333ZM13.4089 24.7333H2.38778V17.5H13.4089V24.7333ZM13.4089 27.125V34.3583H2.38778V27.125H13.4089ZM13.4089 36.75V43.9833H2.38778V36.75H13.4089ZM15.8006 36.75H26.81V43.9833H15.8006V36.75ZM26.81 46.375V53.6122H15.8006V46.375H26.81ZM29.2017 46.375H40.2072V53.6122H29.2017V46.375ZM29.2017 43.9833V36.75H40.2072V43.9833H29.2017ZM42.5989 36.75H53.6122V43.9833H42.5989V36.75ZM42.5989 34.3583V27.125H53.6122V34.3583H42.5989ZM42.5989 24.7333V17.5H53.6122V24.7333H42.5989ZM2.38778 46.375H13.4089V53.6122H2.38778V46.375ZM42.5989 53.6122V46.375H53.6122V53.6122H42.5989Z" fill="white"/>
</g>
<defs>
<clipPath id="clip0">
<rect width="56" height="56" fill="white"/>
</clipPath>
</defs>
</svg>
