<svg width="56" height="56" viewBox="0 0 56 56" fill="none" xmlns="http://www.w3.org/2000/svg">
<path d="M0 0V56H56V0H0ZM53.6122 53.6122H2.38778V2.38778H53.6122V53.6122ZM7.68444 50.0072L21.4822 36.2094C24.8847 39.1665 29.3026 40.6865 33.8042 40.4489C38.3058 40.2114 42.5392 38.2347 45.6115 34.9359C48.6838 31.6371 50.3548 27.2741 50.2721 22.767C50.1894 18.2598 48.3595 13.961 45.1683 10.7771C41.9771 7.59325 37.674 5.77322 33.1667 5.7009C28.6595 5.62859 24.3002 7.30965 21.0085 10.3895C17.7168 13.4694 15.7499 17.7073 15.5227 22.2095C15.2955 26.7116 16.8257 31.126 19.7906 34.5217L5.99278 48.3156L7.68444 50.0072ZM22.2911 33.7089C21.945 33.3589 21.6144 32.9972 21.3072 32.62L29.3067 29.9639L29.7617 30.4344C30.172 30.8592 30.6639 31.1967 31.2079 31.4265C31.7518 31.6564 32.3367 31.774 32.9272 31.7722V31.7722C33.5178 31.774 34.1026 31.6564 34.6466 31.4265C35.1906 31.1967 35.6825 30.8592 36.0928 30.4344L36.5556 29.9639L44.555 32.62C44.2478 33.0089 43.9172 33.3589 43.5711 33.7089C40.7473 36.5273 36.9207 38.1102 32.9311 38.1102C28.9415 38.1102 25.1149 36.5273 22.2911 33.7089V33.7089ZM22.2911 12.4367C24.8683 9.85429 28.2967 8.29717 31.9371 8.05558C35.5775 7.81398 39.1815 8.90439 42.0774 11.1235C44.9733 13.3427 46.9634 16.5392 47.6769 20.1171C48.3903 23.6951 47.7783 27.4104 45.955 30.5706L37.2633 27.685C36.8515 27.5462 36.4089 27.5266 35.9864 27.6284C35.564 27.7303 35.1789 27.9494 34.8756 28.2606L34.3817 28.7778C33.9929 29.1578 33.4709 29.3706 32.9272 29.3706C32.3836 29.3706 31.8615 29.1578 31.4728 28.7778L30.9789 28.2683C30.6768 27.9578 30.293 27.7391 29.8719 27.6372C29.4508 27.5354 29.0095 27.5546 28.5989 27.6928L19.8994 30.5706C18.2484 27.707 17.588 24.3788 18.0203 21.1018C18.4527 17.8247 19.9539 14.7818 22.2911 12.4444V12.4367ZM32.9272 27.3C34.8056 27.3 35.8594 26.2889 36.9483 25.0717C38.2628 23.5978 38.9317 21.0933 38.9317 17.6244C38.9317 13.9961 36.2367 11.0483 32.9272 11.0483C29.6178 11.0483 26.9228 14 26.9228 17.6244C26.9228 21.0933 27.5917 23.5978 28.9061 25.0717C29.995 26.2889 31.0489 27.3 32.9272 27.3ZM32.9272 13.4361C34.9222 13.4361 36.5439 15.3144 36.5439 17.6244C36.5439 20.4089 36.0539 22.4894 35.1672 23.4811C34.0822 24.6944 33.6389 24.9122 32.9272 24.9122C32.2156 24.9122 31.7606 24.6944 30.6872 23.4811C29.8006 22.4894 29.3106 20.4089 29.3106 17.6244C29.3106 15.3144 30.9322 13.4361 32.9272 13.4361V13.4361Z" fill="white"/>
</svg>
