<svg width="85" height="96" viewBox="0 0 85 96" fill="none" xmlns="http://www.w3.org/2000/svg">
<path d="M16.3117 36.1389L15.4337 36.5735C15.1123 36.8816 15.0012 37.6355 15.0624 38.0768L15.1431 38.6562L15.2797 39.5808L15.114 40.4883C15.114 40.4883 15.0707 41.0812 15.5453 40.9463L15.783 40.2265L15.7426 40.8214C15.7426 40.8214 15.3579 41.5828 16.0182 41.6465L16.1306 41.4575C16.2463 41.7518 16.5785 41.6702 16.5785 41.6702C16.5785 41.6702 16.9665 40.9388 17.098 39.8664C17.2783 40.0338 17.5152 39.9842 17.5152 39.9842L17.4406 38.0231L16.3117 36.1389Z" fill="#DA9276"/>
<path d="M14.5262 19.7078C13.9338 18.6658 11.0243 17.9048 11.0243 17.9048C11.0742 17.9985 12.2349 29.6118 12.2349 29.6118L15.1185 37.5351C15.1185 37.5351 16.5652 37.6096 16.7787 36.9715L15.4441 29.3787C15.4441 29.3787 15.6922 21.7588 14.5262 19.7078Z" fill="#DA7B57"/>
<path d="M15.549 37.5772C15.3129 37.5772 15.1219 37.536 15.1185 37.5352C15.1219 37.5356 15.1731 37.5377 15.2555 37.5377C15.3542 37.5377 15.4974 37.5343 15.658 37.5189C15.666 37.5368 15.6739 37.5547 15.6822 37.5726C15.6368 37.576 15.5923 37.5772 15.549 37.5772Z" fill="#D58669"/>
<path d="M12.2344 29.6105C12.2278 29.5423 11.9401 26.6636 11.6466 23.7787C11.9401 26.664 12.2278 29.5423 12.2344 29.6105Z" fill="#F7DED4"/>
<path d="M15.2555 37.5376C15.173 37.5376 15.1218 37.5355 15.1185 37.5351L12.2348 29.6118C12.2348 29.6114 12.2348 29.6114 12.2348 29.6114C12.2348 29.6114 12.2348 29.6114 12.2348 29.611C12.2348 29.6105 12.2344 29.6105 12.2344 29.6105C12.2278 29.5423 11.9401 26.664 11.6466 23.7787C11.938 23.9032 12.2527 23.9681 12.5679 23.9681C13.107 23.9681 13.6477 23.7783 14.0769 23.372C14.1248 23.3262 14.166 23.277 14.2093 23.2288C14.3159 23.3786 14.4491 23.511 14.611 23.6159C14.6131 23.6675 14.6235 23.7196 14.6223 23.7737C14.5798 26.1674 14.3363 28.9366 14.3363 28.9366C14.3363 28.9366 14.36 31.2628 14.4924 32.5542C14.6631 34.2189 14.9624 35.9686 15.658 37.5189C15.4973 37.5343 15.3541 37.5376 15.2555 37.5376Z" fill="#D3704D"/>
<path d="M14.8171 36.8832L15.0449 37.5551C15.0449 37.5551 16.2692 37.797 16.8416 36.9931L16.6621 36.3075C16.6621 36.3075 15.6797 37.128 14.8171 36.8832Z" fill="black"/>
<path d="M16.0514 64.431L13.7909 62.1693H11.3348L11.0775 63.889C11.0775 64.2633 11.2798 64.608 11.6062 64.7907L12.6161 65.0942C13.2643 65.2894 13.8708 65.5983 14.422 65.9917C15.0569 66.4451 16.1909 66.6582 16.7895 66.4567C17.3294 66.2756 17.5971 66.1716 17.3931 65.6141C17.2661 65.267 16.8702 64.8648 16.0514 64.431Z" fill="black"/>
<path d="M8.81335 66.2556L7.03661 63.8682H4.65874L4.47266 65.5163C4.47266 65.8843 4.67164 66.2236 4.99219 66.4034L7.37131 68.3746C7.86253 68.7817 8.49821 68.9982 9.13056 68.9149C9.62928 68.8491 10.1284 68.6143 10.2949 67.9782L10.2791 67.8896C10.1713 67.298 9.23547 66.6827 8.81335 66.2556Z" fill="black"/>
<path d="M13.8634 33.4492L10.3153 34.6581L9.8678 40.0758L10.6983 50.0897L11.0775 62.529C11.0775 62.529 12.7011 63.571 14.2697 62.4112L14.6002 49.0815C14.6002 49.0815 14.4762 41.8388 14.2697 39.4676C13.9267 35.5269 13.8634 33.4492 13.8634 33.4492Z" fill="#D05628"/>
<path d="M4.34108 41.1652L4.75488 51.0388L4.47263 64.1758C4.47263 64.1758 6.1965 65.4364 7.38377 64.1255L9.07684 51.0513L10.3153 40.224L11.7657 35.1452L4.58295 34.8121C4.58295 34.8121 4.13169 36.0223 4.34108 41.1652Z" fill="#D05628"/>
<path d="M14.4758 21.069C14.457 19.5516 13.659 18.8177 12.6066 18.5687C9.76373 17.896 8.82624 17.3894 7.16356 18.0047C5.06961 18.779 3.06848 20.2481 3.06848 20.2481L4.21162 24.3577L4.91932 30.4756L4.42602 35.6622C8.05526 38.5866 13.9866 35.775 13.9866 35.775C13.9866 35.775 13.9433 31.2228 13.8168 29.5177C13.7639 28.8066 13.9238 26.9079 13.9238 26.9079C14.6002 24.2174 14.4978 22.8869 14.4758 21.069Z" fill="#DA7B57"/>
<path d="M1.54935 38.4164L0.986938 41.2335L1.28958 42.2318L1.99021 42.7942C1.99021 42.7942 2.37278 43.4319 2.41649 43.5039C2.56552 43.7516 2.95101 43.5997 2.9098 43.3145L2.86567 43.0148L2.85068 42.0877L3.14459 41.1032L3.14584 41.0953L3.16748 40.9891L3.09505 41.8433C3.05842 42.5918 3.58586 42.5665 3.58586 42.5665L3.81024 40.0982L3.28446 38.2253L1.54935 38.4164Z" fill="#DA9276"/>
<path d="M7.16357 18.0047C7.16357 18.9868 7.95953 19.7836 8.94115 19.7836C9.92319 19.7836 10.7187 18.9868 10.7187 18.0047V15.0969H7.42542L7.16357 18.0047Z" fill="#DA9276"/>
<path d="M6.7697 15.5744C6.7697 17.0622 8.55602 17.7691 9.4294 17.8886C10.4847 18.0326 11.6249 17.2283 11.6249 15.7134V11.8989L6.46997 12.8185L6.7697 15.5744Z" fill="#DA9276"/>
<path d="M10.9772 10.3653C8.93325 9.08149 7.16858 9.82582 5.95217 11.3607C5.35853 12.1096 5.7665 13.6183 5.94259 14.326C6.3414 15.927 7.27182 16.8037 7.27182 16.8037L7.42543 14.2652L7.72391 14.7697L8.15145 14.4575C8.15145 14.4575 7.96453 13.3806 7.97286 13.2015C8.00366 12.5908 11.625 12.503 11.625 12.503C11.625 12.503 13.2069 11.7658 10.9772 10.3653Z" fill="black"/>
<path d="M6.54824 14.3963C6.46623 15.0495 6.89834 15.7684 7.42537 15.5261V14.2652C7.42537 14.2652 6.65939 13.5104 6.54824 14.3963Z" fill="#DA9276"/>
<path d="M7.24927 17.049L6.46997 18.2562C7.39914 20.5629 9.4294 20.8972 9.4294 20.8972L9.86776 19.5205C7.36542 19.1541 7.24927 17.049 7.24927 17.049Z" fill="black"/>
<path d="M9.8678 19.5205C9.8678 19.5205 10.7333 20.1274 10.9502 20.4879C10.9502 20.4879 11.4139 18.3132 10.7187 17.6193C10.7187 17.6193 10.926 18.8394 9.8678 19.5205Z" fill="black"/>
<path d="M4.37479 19.8002C2.21423 19.5937 1.8941 23.1784 1.8941 23.1784L0.952026 30.188L1.49529 38.5376C1.49529 38.5376 1.74298 39.0076 3.3478 38.2474L3.85276 30.6776L5.59828 23.9053C5.59828 23.9053 5.64074 19.9214 4.37479 19.8002Z" fill="#DA7B57"/>
<path d="M1.36877 37.5851L1.42081 38.5992C1.42081 38.5992 2.46363 39.0134 3.35325 38.3831L3.39904 37.5118C3.39904 37.5118 3.04144 37.8886 1.36877 37.5851Z" fill="black"/>
<path d="M10.4752 16.9665C10.2995 16.9503 9.97771 16.825 9.74334 16.7009C9.50064 16.5719 9.20673 16.5319 8.68054 15.9974C8.44159 15.7543 8.23344 15.318 8.15143 14.4575L7.72847 14.6686C7.72847 14.6686 7.62523 16.621 8.46948 17.499C8.83623 17.8807 9.47691 18.5726 10.3699 18.3748C10.8453 18.2695 11.4289 17.7712 11.585 16.3762C11.625 16.0174 11.625 15.0969 11.625 15.0969C11.625 15.0969 11.4306 16.2663 11.0051 16.6984C10.8836 16.8217 10.7096 16.9882 10.4752 16.9665Z" fill="black"/>
<path d="M8.88037 16.6305C8.88037 16.6305 10.3262 16.5798 10.4689 16.4365C10.6117 16.2933 10.7703 16.0594 10.6892 15.982C9.89613 15.2276 8.88037 16.6305 8.88037 16.6305Z" fill="black"/>
<path d="M10.4685 15.9973C10.3931 16.081 10.4318 16.3024 10.5888 16.4302C10.7457 16.558 11.7506 16.4785 11.7506 16.4785C11.7506 16.4785 11.1753 15.2143 10.4685 15.9973Z" fill="black"/>
<path d="M69.4357 39.4338C68.3796 38.8864 62.4045 36.8045 62.3209 36.75C62.2692 36.7158 61.251 37.3661 61.2789 37.421C61.4791 37.8157 67.296 40.8854 68.4633 41.3238C69.6306 41.7617 70.6334 40.8929 70.6334 40.8929C70.6334 40.8929 70.4919 39.9816 69.4357 39.4338Z" fill="#F9B092"/>
<path d="M61.7671 36.1372C61.3716 35.8866 61.3749 35.8138 60.7713 35.7197C60.2343 35.6364 59.2564 35.2189 59.2564 35.2189C59.2564 35.2189 59.0304 35.4865 59.5103 35.7093C59.9907 35.932 60.1427 35.8521 60.0295 36.0469C59.9595 36.1676 59.6406 36.1493 59.3875 36.1314C59.2323 36.1201 59.1015 36.1089 59.0691 36.1301C58.9842 36.1863 58.7115 37.3216 59.0787 37.461C59.4458 37.6001 60.7359 37.7449 61.8095 37.8286C62.8827 37.9119 62.4027 36.9377 62.4027 36.9377C62.2895 36.8266 62.1625 36.3878 61.7671 36.1372Z" fill="#F9B092"/>
<path d="M58.8219 36.054C58.4264 35.9349 58.0613 35.7709 57.8361 35.8046C57.737 35.8196 57.6946 35.9383 57.6946 35.9383C57.6946 35.9383 58.5326 36.4732 59.3518 36.5028L59.9979 36.1373C59.9979 36.1373 59.2174 36.1726 58.8219 36.054Z" fill="#F9B092"/>
<path d="M57.5392 36.0718C57.4401 36.0868 57.3981 36.2059 57.3981 36.2059C57.3981 36.2059 58.331 36.7654 59.1503 36.7949L59.9308 36.5606C59.9308 36.5606 58.9517 36.4582 58.5562 36.3391C58.1607 36.2205 57.7648 36.0381 57.5392 36.0718Z" fill="#F9B092"/>
<path d="M57.5085 36.4715C57.4102 36.4919 57.374 36.613 57.374 36.613C57.374 36.613 58.4156 37.1346 59.2353 37.1188L59.9259 36.8032C59.9259 36.8032 58.9385 36.7783 58.5376 36.6817C58.1367 36.5851 57.732 36.4248 57.5085 36.4715Z" fill="#F9B092"/>
<path d="M57.6212 36.864C57.5234 36.8844 57.4872 37.0056 57.4872 37.0056C57.4872 37.0056 58.6803 37.5105 59.5 37.4943L60.0386 37.1962C60.0386 37.1962 59.0512 37.1712 58.6503 37.0747C58.2494 36.9781 57.8448 36.8178 57.6212 36.864Z" fill="#F9B092"/>
<path d="M75.9602 33.3568C73.9183 35.3038 70.3707 38.1512 69.2075 39.0758C68.054 38.6649 65.8197 38.0151 64.3136 37.4727C64.2973 37.5114 64.2832 37.5505 64.2657 37.5888C64.0667 38.0259 63.854 38.4555 63.635 38.8814C65.4542 39.8843 67.7726 41.0645 68.4632 41.3238C69.061 41.5482 69.6151 41.4295 70.0139 41.2601L70.0193 41.2689C70.0509 41.251 70.0809 41.2343 70.1121 41.2164C70.257 41.1481 70.3769 41.0761 70.4647 41.0174C72.9051 39.6324 74.5103 38.5958 75.7167 37.4073C77.4402 35.7084 78.7844 34.5998 78.7844 34.5998C78.217 32.7386 76.4473 32.8926 75.9602 33.3568Z" fill="black"/>
<path d="M74.3209 72.9767C74.0691 74.0345 72.3589 75.3491 71.757 75.8054C71.155 76.2616 71.0159 76.4673 71.0159 76.4673C70.9926 76.695 71.1779 76.8095 71.1779 76.8095C71.3219 76.9539 72.3144 77.1825 72.9392 76.9319C73.5645 76.6808 74.1815 76.0164 75.0694 75.8366C75.9807 75.6518 76.2038 75.3799 76.2038 75.3799C76.4349 74.4495 76.0211 73.0666 76.0211 73.0666L74.3209 72.9767Z" fill="#F9B092"/>
<path d="M75.5877 74.4662C74.6814 74.7347 74.0003 75.4332 73.1086 75.7251C72.6645 75.8703 72.2382 75.8566 71.8327 75.748C71.8069 75.7675 71.7794 75.7883 71.7569 75.8054C71.155 76.2617 71.0159 76.4673 71.0159 76.4673C70.9926 76.695 71.1779 76.8095 71.1779 76.8095C71.3219 76.9544 72.3144 77.1825 72.9392 76.9319C73.5645 76.6809 74.1814 76.0165 75.0694 75.8366C75.9806 75.6518 76.2038 75.3799 76.2038 75.3799C76.3012 74.9865 76.2833 74.5132 76.2308 74.0969C76.0685 74.2568 75.857 74.3867 75.5877 74.4662Z" fill="black"/>
<path d="M74.6381 75.6097C74.1006 75.8707 73.6523 76.2737 73.0994 76.5102C72.4055 76.8066 71.6566 76.8723 71.0554 76.4182C71.028 76.4502 71.0159 76.4673 71.0159 76.4673C70.993 76.695 71.1778 76.8095 71.1778 76.8095C71.3219 76.9539 72.3143 77.1825 72.9392 76.9319C73.5644 76.6808 74.1814 76.0164 75.0693 75.8366C75.9806 75.6518 76.2037 75.3799 76.2037 75.3799C76.2383 75.2405 76.257 75.0902 76.2662 74.9362C76.2524 74.9486 76.2404 74.9611 76.2245 74.9724C75.7408 75.3183 75.1684 75.352 74.6381 75.6097Z" fill="black"/>
<path d="M80.0375 76.1006L78.359 78.6558C77.5984 79.1912 77.3774 79.6624 77.6255 79.9938C77.8432 80.2843 79.3597 80.2818 79.826 79.9938C80.2827 79.7119 82.1764 78.0588 82.1218 77.6305C82.0677 77.2025 81.865 76.0448 81.865 76.0448L80.0375 76.1006Z" fill="#F9B092"/>
<path d="M81.5698 76.9464C81.186 77.4597 80.7863 77.9809 80.3068 78.4126C79.7006 78.958 78.7948 79.1707 78.0301 78.9155C77.5434 79.3426 77.4185 79.7173 77.6254 79.9937C77.8431 80.2843 79.3597 80.2818 79.826 79.9937C80.2826 79.7119 82.1764 78.0588 82.1218 77.6304C82.0873 77.3586 81.9932 76.7937 81.9291 76.4165C81.8163 76.6013 81.6943 76.7795 81.5698 76.9464Z" fill="black"/>
<path d="M80.3646 79.1929C79.6024 79.8248 78.5217 80.209 77.548 79.8265C77.5634 79.8852 77.5867 79.9418 77.6254 79.9938C77.8431 80.2844 79.3597 80.2819 79.8259 79.9938C80.2826 79.712 82.1763 78.0589 82.1218 77.6305C82.1122 77.5547 82.0977 77.4548 82.0806 77.3433C81.7409 78.061 80.9887 78.6754 80.3646 79.1929Z" fill="black"/>
<path d="M82.2717 49.2583L74.7655 49.5277L77.8515 55.0144C77.8515 55.0144 79.0717 63.9598 79.3385 64.8348C79.6053 65.7099 80.0375 76.1006 80.0375 76.1006C80.0375 76.1006 80.492 76.3641 81.0291 76.3641C81.4337 76.3641 81.8587 76.1147 81.8587 76.1147C81.8587 76.1147 82.1872 72.2319 82.5336 69.3599C82.8578 66.6686 82.2717 64.4235 82.2717 64.4235L82.8158 54.574C82.8158 54.574 83.1035 52.9642 83.1076 52.2736C83.1268 49.1663 82.2717 49.2583 82.2717 49.2583Z" fill="#F9B092"/>
<path d="M74.5569 49.2688C73.8168 60.7931 73.8301 61.0582 74.0445 64.4835C74.4978 71.727 74.2289 73.2727 74.2289 73.2727C74.2289 73.2727 74.3704 73.6016 75.2509 73.6016C75.8986 73.6016 76.0885 73.3235 76.0885 73.3235C76.0885 73.3235 76.8057 68.9445 76.9036 67.4983C77.0018 66.0529 76.8228 62.7913 76.8228 62.7913L78.5837 53.9833L74.5569 49.2688Z" fill="#F9B092"/>
<path d="M82.2717 49.2583L74.5773 49.2529L73.3684 57.757C73.3684 57.757 74.8691 58.7844 78.9547 59.2773C80.2589 59.4346 82.248 58.9484 83.5401 58.5375C83.5401 58.5375 83.3274 53.3126 83.3316 52.6216C83.3507 49.5148 82.2717 49.2583 82.2717 49.2583Z" fill="black"/>
<path d="M76.9306 32.8218C76.5214 32.8539 76.3965 32.9384 76.3965 32.9384C76.3965 32.9384 75.9195 33.0416 75.7163 33.8122C75.6281 34.1486 75.6926 34.8113 75.5744 35.3142L74.905 36.9977L74.2322 38.9105C73.8293 40.4741 74.9025 41.2568 74.9025 41.2568L75.3117 44.2025L74.4241 49.5822C74.4241 49.5822 79.6341 52.5667 83.0835 49.9107L82.0619 45.3231C82.0069 41.4591 82.5335 36.6605 82.5335 36.6605C82.5335 36.6605 84.1238 36.3695 83.7749 35.7609C82.0785 32.801 78.4002 32.7057 76.9306 32.8218Z" fill="black"/>
<path d="M78.7344 32.6587C76.7075 33.0383 76.2749 34.9953 76.4589 35.3171C76.6429 35.6394 77.2316 36.3341 78.8851 35.8188C80.8538 35.2052 81.0182 33.4771 81.0182 33.4771C81.0182 33.4771 80.0391 32.4143 78.7344 32.6587Z" fill="#F9B092"/>
<path d="M80.4537 31.727L77.7653 31.4381C77.7653 31.4381 77.4564 32.9605 78.2157 34.2181L80.9349 33.5167C80.9349 33.5167 80.3392 32.4888 80.4537 31.727Z" fill="#F9B092"/>
<path d="M76.5056 30.5801C76.5056 32.0397 77.1246 33.4467 78.55 33.0717C78.55 33.0717 80.9883 32.3531 81.3055 30.8274L81.7064 28.1328L76.6663 27.2465L76.5056 30.5801Z" fill="#F9B092"/>
<path d="M79.2915 25.2637C75.6834 25.2637 76.245 28.5882 76.245 28.5882C76.8899 28.4675 77.5988 27.8921 77.5988 27.8921C77.5988 27.8921 78.7478 28.7564 79.0579 28.9604C79.5067 29.2563 80.552 29.6868 80.552 29.6868L80.4579 32.1908C80.4625 32.6545 80.8384 33.3339 80.8384 33.3339L83.0315 34.7564C83.0315 34.7564 82.8812 29.6198 82.8437 28.9266C82.8012 28.1361 82.5386 25.2637 79.2915 25.2637Z" fill="black"/>
<path d="M83.8786 36.0686C83.8169 35.8658 83.6475 35.7072 83.4377 35.6648C81.7775 35.3305 81.3013 37.4086 81.3354 37.8133C81.3716 38.2437 82.7492 45.2912 82.7492 45.2912C82.8262 47.142 82.5335 52.1454 82.5335 52.1454L81.5977 53.9317L81.4807 55.7955C81.4807 55.7955 81.6256 55.9125 81.8858 55.338L82.0298 54.5695L82.2209 55.522L82.1114 56.1818L82.0552 56.4328C81.9857 56.6689 82.2454 56.7338 82.3974 56.5427C82.4415 56.487 82.7379 56.1826 82.7379 56.1826L83.374 55.793L83.7449 54.9866L83.8045 52.6466C84.0522 51.178 84.8173 46.6275 84.8685 46.14C84.9293 45.558 84.9876 45.0014 84.9876 45.0014C84.9876 45.0014 84.7902 41.3468 84.4618 38.9872C84.2416 37.409 84.0084 36.4982 83.8786 36.0686Z" fill="#F9B092"/>
<path d="M83.8786 36.0685C83.817 35.8658 83.5418 35.3679 83.3316 35.3259C81.6719 34.9916 81.1298 37.2766 81.164 37.6808C81.2002 38.1117 82.7492 45.2911 82.7492 45.2911C82.7938 46.3635 82.7143 48.4924 82.6397 50.0947C83.1559 50.1767 83.6801 50.22 84.2104 50.2259C84.5068 48.4508 84.8357 46.4538 84.8686 46.1399C84.9293 45.558 84.9876 45.0014 84.9876 45.0014C84.9876 45.0014 84.7903 41.3467 84.4618 38.9876C84.2416 37.409 84.0085 36.4982 83.8786 36.0685Z" fill="black"/>
<path d="M15.7875 26.9983C15.7875 41.9091 27.875 53.9966 42.7858 53.9966C57.6966 53.9966 69.7841 41.9091 69.7841 26.9983C69.7841 12.0876 57.6966 0 42.7858 0C27.875 0 15.7875 12.0876 15.7875 26.9983Z" fill="#FBDD9A"/>
<path d="M66.2914 40.2893C64.7083 39.4822 62.7529 38.4219 61.8196 37.8295C61.8595 37.8324 61.8978 37.8336 61.9341 37.8336C62.8445 37.8341 62.4028 36.9378 62.4028 36.9378C62.3678 36.9032 62.3312 36.8374 62.2862 36.7559C62.2992 36.7513 62.3087 36.7488 62.3154 36.7488C62.3175 36.7488 62.3196 36.7492 62.3208 36.75C62.352 36.7704 63.2033 37.0731 64.3136 37.4727C64.2974 37.5114 64.2832 37.5506 64.2657 37.5889C64.0667 38.026 63.854 38.4556 63.635 38.8814C64.4839 39.3494 65.4414 39.8556 66.2914 40.2893Z" fill="#F9B267"/>
<path d="M61.934 37.8336C61.8978 37.8336 61.8595 37.8324 61.8195 37.8295C61.8162 37.8291 61.8129 37.8291 61.8096 37.8286C61.1281 37.7758 60.3592 37.6979 59.7947 37.6126C59.8525 37.4881 59.9087 37.3636 59.9637 37.2379L60.0386 37.1963C60.0386 37.1963 60.0186 37.1959 59.9824 37.1946C60.1977 36.6992 60.3916 36.1934 60.5644 35.6772C60.6377 35.6951 60.7076 35.7097 60.7713 35.7197C61.3749 35.8138 61.3716 35.8866 61.7671 36.1373C62.0402 36.3104 62.1855 36.5735 62.2862 36.7559C62.3312 36.8375 62.3678 36.9032 62.4028 36.9378C62.4028 36.9378 62.8445 37.8341 61.934 37.8336Z" fill="#F9B267"/>
<path d="M59.9637 37.2379C59.97 37.2237 59.9762 37.2087 59.9825 37.1946C60.0187 37.1958 60.0387 37.1962 60.0387 37.1962L59.9637 37.2379Z" fill="#F9B267"/>
<path d="M66.2914 40.2893C65.4413 39.8555 64.4838 39.3493 63.635 38.8814C63.854 38.4555 64.0667 38.0259 64.2657 37.5888C64.2832 37.5505 64.2973 37.5114 64.3136 37.4727C65.1678 37.7803 66.256 38.1225 67.2489 38.436C66.9529 39.0675 66.6332 39.6857 66.2914 40.2893Z" fill="#5A4414"/>
<path d="M42.7858 48.4749C32.4359 48.4749 24.0455 40.0849 24.0455 29.735C24.0455 19.3847 32.4359 10.9943 42.7858 10.9943C53.1357 10.9943 61.5261 19.3847 61.5261 29.735C61.5261 31.8119 61.1881 33.8101 60.5645 35.6772C60.0167 35.5431 59.2565 35.2188 59.2565 35.2188C59.2565 35.2188 59.0305 35.4865 59.5104 35.7092C59.9908 35.9319 60.1428 35.852 60.0296 36.0468C59.9929 36.1101 59.888 36.1351 59.7598 36.1422C59.7511 36.1422 59.7423 36.1422 59.7332 36.1422C59.6599 36.1422 59.5758 36.1413 59.4875 36.138C59.4538 36.1359 59.4201 36.1338 59.3876 36.1313C59.3148 36.1259 59.2473 36.1209 59.1928 36.1188C59.0567 36.1055 58.926 36.0851 58.8219 36.0539C58.4622 35.9457 58.1275 35.8 57.9002 35.8C57.8777 35.8 57.8561 35.8016 57.8361 35.8045C57.737 35.8195 57.6946 35.9382 57.6946 35.9382C57.6946 35.9382 58.0276 36.1509 58.4789 36.3153C58.1425 36.2079 57.814 36.0676 57.5988 36.0676C57.5776 36.0676 57.558 36.0689 57.5393 36.0718C57.4402 36.0868 57.3982 36.2058 57.3982 36.2058C57.3982 36.2058 57.8016 36.4477 58.3107 36.6217C58.038 36.5455 57.7803 36.4631 57.598 36.4631C57.5659 36.4631 57.5355 36.4656 57.5085 36.4714C57.4102 36.4918 57.374 36.613 57.374 36.613C57.374 36.613 58.155 37.0039 58.8964 37.0988C58.8972 37.105 58.8977 37.1113 58.8985 37.1179C58.804 37.1055 58.7187 37.0909 58.6504 37.0746C58.2986 36.9897 57.9435 36.8561 57.7112 36.8561C57.6787 36.8561 57.6488 36.8586 57.6213 36.864C57.5235 36.8844 57.4873 37.0055 57.4873 37.0055C57.4873 37.0055 58.3411 37.3669 59.1 37.4685C59.239 37.5168 59.4867 37.5659 59.7948 37.6125C56.8191 44.0268 50.322 48.4749 42.7858 48.4749Z" fill="#FCCD6D"/>
<path d="M59.7947 37.6126C59.4867 37.5659 59.239 37.5168 59.0999 37.4685C59.2244 37.4852 59.3464 37.4952 59.4617 37.4952C59.4746 37.4952 59.4875 37.4947 59.5 37.4943L59.9637 37.2379C59.9088 37.3636 59.8526 37.4881 59.7947 37.6126ZM59.9825 37.1946C59.8101 37.1888 59.2794 37.1684 58.8984 37.118C58.8976 37.1113 58.8972 37.1051 58.8964 37.0989C58.9984 37.1118 59.0995 37.1193 59.1982 37.1193C59.2107 37.1193 59.2227 37.1188 59.2352 37.1188L59.9259 36.8033C59.9259 36.8033 59.5941 36.795 59.2369 36.7691L59.9309 36.5606C59.9309 36.5606 59.6744 36.5339 59.3714 36.4919L59.9979 36.1372C59.9979 36.1372 59.9017 36.1418 59.7598 36.1422C59.888 36.1351 59.9929 36.1102 60.0295 36.0469C60.1428 35.8521 59.9908 35.932 59.5104 35.7093C59.0304 35.4865 59.2565 35.2189 59.2565 35.2189C59.2565 35.2189 60.0166 35.5432 60.5645 35.6772C60.3917 36.1934 60.1977 36.6992 59.9825 37.1946ZM59.4875 36.138C59.3918 36.1347 59.2906 36.1289 59.1928 36.1189C59.2473 36.121 59.3147 36.126 59.3876 36.1314C59.4201 36.1339 59.4538 36.136 59.4875 36.138Z" fill="#FCB34B"/>
<path d="M59.3714 36.4919C59.0817 36.4516 58.7495 36.3974 58.5563 36.3392C58.5305 36.3317 58.5047 36.3238 58.4789 36.3154C58.0276 36.151 57.6946 35.9383 57.6946 35.9383C57.6946 35.9383 57.737 35.8196 57.8361 35.8046C57.8561 35.8017 57.8777 35.8 57.9002 35.8C58.1275 35.8 58.4622 35.9458 58.8219 36.054C58.926 36.0852 59.0567 36.1056 59.1928 36.1189C59.2906 36.1289 59.3918 36.1348 59.4876 36.1381C59.5758 36.1414 59.6599 36.1422 59.7332 36.1422C59.7423 36.1422 59.7511 36.1422 59.7598 36.1422C59.9018 36.1418 59.9979 36.1373 59.9979 36.1373L59.3714 36.4919Z" fill="#FCB34B"/>
<path d="M59.2369 36.7692C58.9779 36.7505 58.7057 36.7226 58.5375 36.6818C58.4613 36.6635 58.3855 36.6431 58.3106 36.6218C57.8015 36.4478 57.3981 36.206 57.3981 36.206C57.3981 36.206 57.4401 36.0869 57.5392 36.0719C57.5579 36.069 57.5775 36.0677 57.5987 36.0677C57.814 36.0677 58.1424 36.208 58.4788 36.3154C58.5046 36.3238 58.5304 36.3317 58.5562 36.3392C58.7494 36.3975 59.0816 36.4516 59.3713 36.492C59.6744 36.534 59.9308 36.5606 59.9308 36.5606L59.2369 36.7692Z" fill="#FCB34B"/>
<path d="M59.1982 37.1192C59.0996 37.1192 58.9984 37.1117 58.8964 37.0988C58.155 37.0039 57.374 36.613 57.374 36.613C57.374 36.613 57.4102 36.4919 57.5085 36.4715C57.5355 36.4656 57.5659 36.4631 57.598 36.4631C57.7803 36.4631 58.038 36.5456 58.3107 36.6217C58.3856 36.643 58.4614 36.6634 58.5376 36.6817C58.7057 36.7225 58.978 36.7504 59.2369 36.7691C59.5941 36.7949 59.9259 36.8033 59.9259 36.8033L59.2353 37.1188C59.2228 37.1188 59.2107 37.1192 59.1982 37.1192Z" fill="#FCB34B"/>
<path d="M59.4616 37.4952C59.3463 37.4952 59.2244 37.4852 59.0999 37.4686C58.341 37.367 57.4872 37.0056 57.4872 37.0056C57.4872 37.0056 57.5234 36.8845 57.6212 36.8641C57.6487 36.8587 57.6787 36.8562 57.7111 36.8562C57.9434 36.8562 58.2985 36.9898 58.6503 37.0748C58.7186 37.091 58.8039 37.1056 58.8984 37.118C59.2793 37.1684 59.8101 37.1888 59.9824 37.1946C59.9762 37.2088 59.9699 37.2238 59.9637 37.2379L59.4999 37.4944C59.4875 37.4948 59.4746 37.4952 59.4616 37.4952Z" fill="#FCB34B"/>
<path d="M18.8006 61.0453C18.5791 62.1535 20.5178 63.372 21.3487 63.0951L20.1023 51.9893" fill="black"/>
<path d="M40.7064 60.9833C41.0136 60.9217 41.7638 61.176 41.7863 60.7297C41.7879 60.7064 40.885 60.5283 40.3992 60.3209C39.9637 60.1353 38.8168 60.5978 38.8168 60.5978L37.4397 60.9487C37.4397 60.9487 36.8178 62.0098 37.0659 62.1951C37.3852 62.4332 38.3239 61.9578 38.4368 62.0702C38.6362 62.27 40.0004 62.9174 40.1844 62.8404C40.3688 62.7638 41.1523 62.6867 41.4749 62.5023C41.7975 62.3175 41.8704 62.1585 41.8704 62.1585C41.8704 62.1585 41.2055 62.1493 40.865 62.0003C40.4466 61.8167 40.3992 61.0449 40.7064 60.9833Z" fill="#F9B092"/>
<path d="M42.6738 61.6548C42.3416 61.6136 41.8429 61.8625 41.3446 61.8213C40.8463 61.7797 40.2643 61.738 40.2643 61.738L40.3475 62.7767C40.3475 62.7767 42.1755 62.2363 42.4665 62.0702C42.7571 61.9041 43.0064 61.6964 42.6738 61.6548Z" fill="#F9B092"/>
<path d="M36.9689 60.6303C36.9689 60.6303 36.8178 62.0099 37.0659 62.1952C37.3852 62.4333 37.7994 62.2364 38.575 62.3196C38.8797 61.4333 38.7411 60.935 38.575 60.575C37.9934 60.575 36.9689 60.6303 36.9689 60.6303Z" fill="black"/>
<path d="M31.8465 93.3289C30.6209 93.3264 29.1077 93.0138 29.1077 93.0138L26.3943 93.6253L26.3018 95.0016C26.2902 95.1723 26.3281 95.3471 26.4267 95.4866C26.9621 96.2434 28.0852 95.9399 28.0852 95.9399C28.0852 95.9399 31.6974 95.1748 32.769 94.5949C33.602 94.1444 32.6824 93.3306 31.8465 93.3289Z" fill="black"/>
<path d="M25.883 90.7629C24.6354 90.7604 23.1829 90.5605 23.1829 90.5605L20.5432 91.0559L20.2672 92.5829C20.2405 92.7303 20.2651 92.8864 20.3505 93.0088C20.9145 93.8189 22.2945 93.4321 22.2945 93.4321L26.6294 92.0617C27.4191 91.7436 26.7347 90.7645 25.883 90.7629Z" fill="black"/>
<path d="M27.1893 90.7629C26.9658 90.7625 26.7268 90.7555 26.4854 90.7446C26.7526 91.0477 26.9895 91.3741 27.1697 91.7329C27.2497 91.8924 27.3009 92.0651 27.335 92.2408L27.9357 92.0618C28.7258 91.7437 28.041 90.7646 27.1893 90.7629Z" fill="black"/>
<path d="M21.5627 93.5241C21.141 93.5241 20.6389 93.4234 20.3505 93.0088C20.2872 92.918 20.2572 92.8085 20.2572 92.6978C20.2572 92.8085 20.2872 92.918 20.3505 93.0088C20.6389 93.4234 21.141 93.5241 21.5627 93.5241C21.9653 93.5241 22.2945 93.4321 22.2945 93.4321L26.6294 92.0617C26.7714 92.0047 26.8659 91.926 26.92 91.8357C27.0128 91.8069 27.0998 91.779 27.1798 91.7528C27.2181 91.8323 27.2497 91.9152 27.2755 91.9993C27.2393 92.0222 27.1981 92.043 27.1519 92.0617L22.2945 93.4321C22.2945 93.4321 21.9653 93.5241 21.5627 93.5241Z" fill="#C2C4C4"/>
<path d="M21.5627 93.5242C21.141 93.5242 20.639 93.4234 20.3505 93.0088C20.2872 92.9181 20.2572 92.8086 20.2572 92.6978C20.2568 92.6595 20.2606 92.6208 20.2672 92.5829L20.2735 92.5492C20.3484 92.6158 20.4283 92.6774 20.5137 92.7295C20.8829 92.9555 21.3804 93.0188 21.8183 93.0188C22.0981 93.0188 22.3537 92.993 22.536 92.9672C22.7184 92.9414 22.8278 92.9156 22.8154 92.9156C22.8145 92.9156 22.8124 92.9156 22.8099 92.916C23.1014 92.8769 25.5958 92.2457 26.92 91.8357C26.8659 91.926 26.7714 92.0047 26.6294 92.0617L22.2946 93.4322C22.2946 93.4322 21.9653 93.5242 21.5627 93.5242Z" fill="black"/>
<path d="M27.2756 91.9993C27.2497 91.9152 27.2181 91.8324 27.1798 91.7529C27.2343 91.735 27.286 91.7175 27.3343 91.7008C27.3917 91.6809 27.4458 91.6584 27.4987 91.6346C27.4949 91.7741 27.4279 91.904 27.2756 91.9993Z" fill="black"/>
<path d="M20.4333 68.2372C20.3301 69.6668 20.726 80.8892 20.726 80.8892L20.5432 91.056C20.5432 91.056 20.8384 91.7079 22.024 91.5476C22.5701 91.4739 23.1534 91.1113 23.1829 90.5606L24.1492 81.7705L25.112 72.856C25.112 72.856 25.8593 77.5593 26.2131 82.124C26.4063 84.6151 26.3763 93.8447 26.3763 93.8447C26.3763 93.8447 27.0124 94.5137 28.2842 94.1703C29.0756 93.9567 29.2729 93.5521 29.2925 93.1358L30.1026 80.9896V68.7497C29.9947 68.773 23.4385 67.3942 20.6061 66.5779C20.5295 67.2244 20.462 67.843 20.4333 68.2372Z" fill="black"/>
<path d="M29.3415 51.2154C28.7288 50.8782 27.0361 49.8004 25.9017 49.4845C24.0092 48.9574 23.0101 49.4137 23.0101 49.4137C23.0101 49.4137 20.4137 50.2958 20.1023 51.9893C19.8138 53.5571 20.696 61.3347 20.768 62.7068C20.84 64.0789 20.5161 67.5062 20.5161 67.5062C20.5161 67.5062 24.1416 69.0149 26.5028 69.0082C28.5344 69.0028 30.1025 68.7497 30.1025 68.7497L29.9793 57.3607L30.5713 53.8172C30.6112 52.6187 30.3914 51.7941 29.3415 51.2154Z" fill="black"/>
<path d="M23.4785 49.4678C23.4785 50.3886 26.6186 50.7312 26.6186 49.8104L27.0545 47.1836H23.9668L23.4785 49.4678Z" fill="#F9B092"/>
<path d="M23.5052 48.8258L23.0906 49.3145C22.9578 49.608 23.3004 49.981 23.5735 50.1513C24.5821 50.782 26.4725 50.829 27.1078 49.9261L26.632 49.4219C25.5987 49.8087 23.7891 49.7591 23.5052 48.8258Z" fill="black"/>
<path d="M22.5889 44.7057L23.0272 47.2672C23.1126 48.6601 25.7381 49.1709 25.7381 49.1709C27.0819 49.0889 27.9362 48.5206 27.8492 47.1032L27.6306 43.5334L22.5889 44.7057Z" fill="#F9B092"/>
<path d="M26.3526 41.85C25.5529 41.5573 22.8129 41.6327 22.4316 43.6009C21.8055 46.8318 23.5614 48.5956 23.5614 48.5956C23.5614 48.5956 24.6725 49.3408 25.2615 48.8154C26.0708 48.0936 27.1482 46.9363 27.082 45.8514C27.0158 44.7657 27.6935 44.5534 27.6935 44.5534C29.3008 43.2808 27.4879 42.2663 26.3526 41.85Z" fill="#3E4143"/>
<path d="M26.425 46.0696C26.3859 46.6849 26.8313 47.333 27.3113 47.0766L27.2393 45.8964C27.2393 45.8964 26.4787 45.2341 26.425 46.0696Z" fill="#F9B092"/>
<path d="M29.1197 51.4926C27.1548 51.779 27.3309 54.8696 27.3309 54.8696C27.3309 54.8696 28.6118 59.7656 30.2666 61.9874C30.8598 62.7842 32.0858 61.2047 33.0362 60.7685C33.0362 60.7685 31.7044 56.7129 31.3356 55.1481C31.0904 54.1082 30.6858 51.2641 29.1197 51.4926Z" fill="black"/>
<path d="M37.7441 60.4088C35.4732 60.1869 32.4542 60.0179 32.4542 60.0179L32.423 60.0062C32.1145 61.0053 30.038 60.4608 29.9207 61.4474C29.9207 61.4474 30.4327 62.929 31.804 62.8616C33.3663 62.785 38.237 62.3991 38.237 62.3991C38.237 62.3991 39.2094 60.5516 37.7441 60.4088Z" fill="black"/>
<path d="M46.932 50.755C44.8119 49.5232 41.3658 49.5236 39.2327 50.755C37.0988 51.9872 37.0875 53.9825 39.2077 55.2148C41.3266 56.4462 44.7727 56.4466 46.9071 55.2148C49.0397 53.9834 49.051 51.9864 46.932 50.755Z" fill="#727779"/>
<path d="M46.932 54.2668C44.8119 53.0345 41.3658 53.0354 39.2327 54.2668C37.0988 55.4986 37.0875 57.4939 39.2077 58.7261C41.3266 59.9579 44.7727 59.9583 46.9071 58.7265C49.0397 57.4951 49.051 55.4982 46.932 54.2668Z" fill="#727779"/>
<path d="M37.5979 56.5772H48.541V52.8206H37.5979V56.5772Z" fill="#727779"/>
<path d="M48.6826 53.0088C48.4882 52.9946 48.3254 53.1378 48.3134 53.3243C48.2676 54.0116 47.7455 54.669 46.8434 55.1756C44.7503 56.3512 41.3546 56.3512 39.2731 55.1764C38.3773 54.6702 37.8635 54.0137 37.8261 53.3281C37.8161 53.1416 37.6492 52.9988 37.4606 53.0084C37.2691 53.0179 37.1217 53.1778 37.1317 53.3639C37.1825 54.2847 37.8186 55.136 38.9238 55.7605C40.0599 56.4024 41.5557 56.7234 43.0526 56.7234C44.5492 56.7234 46.0479 56.4024 47.1906 55.7609C48.3013 55.1377 48.9461 54.2876 49.0069 53.3676C49.019 53.1811 48.8737 53.0204 48.6826 53.0088Z" fill="#D5D7D6"/>
<path d="M41.1056 59.2678C41.1056 60.2548 41.9061 61.0554 42.8932 61.0554H43.3682C44.3556 61.0554 45.1557 60.2548 45.1557 59.2678V58.8561H41.1056V59.2678Z" fill="#727779"/>
<path d="M48.6826 54.6981C48.4882 54.6847 48.3254 54.8275 48.3134 55.0136C48.2676 55.7009 47.7455 56.3586 46.8434 56.8653C44.7503 58.0405 41.3546 58.0405 39.2731 56.8657C38.3773 56.3595 37.8635 55.7034 37.8261 55.0178C37.8161 54.8313 37.6492 54.6864 37.4606 54.6976C37.2691 54.7076 37.1217 54.8671 37.1317 55.0531C37.1825 55.974 37.8186 56.8253 38.9238 57.4498C40.0599 58.0921 41.5557 58.4126 43.0526 58.4126C44.5492 58.4126 46.0479 58.0921 47.1906 57.4506C48.3013 56.827 48.9461 55.9773 49.0069 55.0573C49.019 54.8708 48.8737 54.7097 48.6826 54.6981Z" fill="#D5D7D6"/>
<path d="M48.6826 56.3878C48.4882 56.3757 48.3254 56.5169 48.3134 56.7029C48.2676 57.3907 47.7455 58.048 46.8434 58.5546C44.7503 59.7302 41.3546 59.7302 39.2731 58.555C38.3773 58.0492 37.8635 57.3927 37.8261 56.7071C37.8161 56.5206 37.6492 56.3845 37.4606 56.3874C37.2691 56.397 37.1217 56.5568 37.1317 56.7429C37.1825 57.6637 37.8186 58.5151 38.9238 59.1395C40.0599 59.7814 41.5557 60.1024 43.0526 60.1024C44.5492 60.1024 46.0479 59.7814 47.1906 59.1399C48.3013 58.5167 48.9461 57.6667 49.0069 56.7466C49.019 56.5602 48.8737 56.3995 48.6826 56.3878Z" fill="#D5D7D6"/>
<path d="M44.0776 22.4806C37.595 22.0669 32.2086 27.2014 32.2086 33.5949C32.2086 35.581 32.729 37.4456 33.6403 39.06C35.2093 41.8396 36.4848 44.7724 37.2499 47.8712C37.5105 48.9266 37.784 50.0056 38.0663 51.0784C37.9114 51.9626 38.4156 52.8768 39.5816 53.5545C41.6472 54.7547 45.0071 54.7555 47.0874 53.5545C48.1622 52.9338 48.6797 52.1141 48.648 51.3007L48.6901 51.2998C48.9532 50.2142 49.21 49.133 49.4552 48.0823C50.2004 44.8922 51.4851 41.8704 53.0807 39.0092C54.0507 37.2691 54.5682 35.2426 54.4724 33.0874C54.2226 27.4633 49.6954 22.8395 44.0776 22.4806Z" fill="#FCE5B1"/>
<path d="M46.4745 41.0508C46.1756 40.7702 45.9442 40.3834 45.9259 39.8547C45.9009 39.1337 46.1777 38.7341 46.4508 38.7241H46.4612C46.7081 38.7241 46.9662 39.0405 46.9891 39.6541C47.0003 39.953 46.8675 40.5699 46.4745 41.0508ZM43.4231 41.0508C43.1242 40.7702 42.8928 40.3834 42.8749 39.8547C42.8499 39.1337 43.1267 38.7341 43.3998 38.7241H43.4102C43.6567 38.7241 43.9148 39.0405 43.9377 39.6541C43.9493 39.953 43.8161 40.5699 43.4231 41.0508ZM40.3717 41.0508C40.0732 40.7702 39.8413 40.3834 39.8234 39.8547C39.7984 39.1337 40.0753 38.7341 40.3484 38.7241H40.3588C40.6052 38.7241 40.8633 39.0405 40.8866 39.6541C40.8979 39.953 40.7647 40.5699 40.3717 41.0508ZM47.5973 41.6652C47.3875 41.6015 47.0973 41.492 46.8176 41.3147C47.2826 40.7389 47.4358 40.0138 47.4216 39.6379C47.3866 38.7074 46.9042 38.2911 46.4608 38.2911L46.4354 38.2916C45.9558 38.309 45.4567 38.8103 45.4933 39.8697C45.5133 40.4467 45.7439 40.95 46.1669 41.3505C45.8326 41.6078 45.4184 41.7376 44.9318 41.7376H44.8319C44.7286 41.7177 44.2328 41.6107 43.7661 41.3147C44.2311 40.7389 44.3843 40.0142 44.3702 39.6379C44.3352 38.7074 43.8527 38.2911 43.4094 38.2911L43.384 38.2916C42.9048 38.309 42.4057 38.8103 42.4423 39.8697C42.4623 40.4467 42.6921 40.95 43.1155 41.3505C42.7816 41.6078 42.3674 41.7376 41.8807 41.7376H41.7808C41.6772 41.7177 41.1814 41.6107 40.7147 41.3147C41.1797 40.7389 41.3333 40.0142 41.3192 39.6379C41.2842 38.7074 40.8013 38.2911 40.3584 38.2911L40.3325 38.2916C39.8534 38.309 39.3543 38.8103 39.3909 39.8697C39.4109 40.4467 39.6411 40.95 40.064 41.3505C39.7897 41.562 39.46 41.6856 39.0816 41.7239L38.3997 38.2845L37.7632 38.4106L40.5936 52.6912L41.2301 52.565L39.1657 42.1494C39.6477 42.0944 40.0653 41.9212 40.4104 41.6273C40.4703 41.6681 40.5332 41.7068 40.5981 41.7447C41.1564 42.0665 41.7013 42.1631 41.7242 42.1673C41.7363 42.1693 41.7484 42.1702 41.7609 42.1702H41.8807C42.5073 42.1702 43.038 41.9878 43.4618 41.6273C43.5218 41.6677 43.5842 41.7068 43.6496 41.7447C44.2074 42.0665 44.7528 42.1631 44.7757 42.1673C44.7877 42.1693 44.7998 42.1702 44.8123 42.1702H44.9318C45.5587 42.1702 46.0895 41.9878 46.5133 41.6273C46.5732 41.6681 46.6357 41.7068 46.701 41.7447C47.0012 41.9179 47.2967 42.0253 47.5103 42.089L45.3551 52.5629L45.9908 52.6937L48.9294 38.4131L48.2937 38.282L47.5973 41.6652Z" fill="#FCB42D"/>
</svg>
