<svg width="94" height="96" viewBox="0 0 94 96" fill="none" xmlns="http://www.w3.org/2000/svg">
<path d="M55.5925 60.1051C55.5925 59.5582 55.9765 58.8931 56.4502 58.6196C56.9239 58.3462 57.3078 58.5679 57.3078 59.1148C57.3078 59.6617 56.9239 60.3267 56.4502 60.6003C55.9765 60.8737 55.5925 60.6521 55.5925 60.1051Z" fill="#050606"/>
<path d="M55.5925 60.1051C55.5925 59.5582 55.9765 58.8931 56.4502 58.6196C56.9239 58.3462 57.3078 58.5679 57.3078 59.1148C57.3078 59.6617 56.9239 60.3267 56.4502 60.6003C55.9765 60.8737 55.5925 60.6521 55.5925 60.1051Z" fill="#050606"/>
<path d="M57.0799 58.5757L57.819 58.961L56.6588 61.0756L55.7933 60.6254L56.0126 59.4345L57.0799 58.5757Z" fill="#050606"/>
<path d="M56.3215 60.4832C56.3214 59.9362 56.7053 59.2712 57.1791 58.9977C57.6527 58.7243 58.0366 58.946 58.0366 59.4929C58.0366 60.0399 57.6528 60.7049 57.1791 60.9785C56.7054 61.2519 56.3215 61.0302 56.3215 60.4832Z" fill="#6C7072"/>
<path d="M56.3215 60.4832C56.3214 59.9362 56.7053 59.2712 57.1791 58.9977C57.6527 58.7243 58.0366 58.946 58.0366 59.4929C58.0366 60.0399 57.6528 60.7049 57.1791 60.9785C56.7054 61.2519 56.3215 61.0302 56.3215 60.4832Z" fill="#6C7072"/>
<path d="M65.4221 60.3599C65.4221 59.813 65.806 59.148 66.2798 58.8744C66.7534 58.601 67.1374 58.8226 67.1374 59.3696C67.1374 59.9165 66.7534 60.5816 66.2798 60.8551C65.806 61.1285 65.4221 60.9068 65.4221 60.3599Z" fill="#050606"/>
<path d="M65.4221 60.3599C65.4221 59.813 65.806 59.148 66.2798 58.8744C66.7534 58.601 67.1374 58.8226 67.1374 59.3696C67.1374 59.9165 66.7534 60.5816 66.2798 60.8551C65.806 61.1285 65.4221 60.9068 65.4221 60.3599Z" fill="#050606"/>
<path d="M66.9094 58.8305L67.6485 59.2156L66.4882 61.3303L65.6228 60.8801L65.8421 59.6891L66.9094 58.8305Z" fill="#050606"/>
<path d="M66.151 60.7379C66.151 60.191 66.535 59.526 67.0087 59.2524C67.4823 58.9791 67.8664 59.2007 67.8664 59.7476C67.8664 60.2945 67.4824 60.9596 67.0087 61.2331C66.535 61.5065 66.1511 61.2849 66.151 60.7379Z" fill="#6C7072"/>
<path d="M66.151 60.7379C66.151 60.191 66.535 59.526 67.0087 59.2524C67.4823 58.9791 67.8664 59.2007 67.8664 59.7476C67.8664 60.2945 67.4824 60.9596 67.0087 61.2331C66.535 61.5065 66.1511 61.2849 66.151 60.7379Z" fill="#6C7072"/>
<path d="M55.4098 54.5549C55.4098 54.0081 55.7938 53.343 56.2674 53.0695C56.7411 52.796 57.1251 53.0178 57.1251 53.5648C57.1251 54.1117 56.7411 54.7767 56.2674 55.0501C55.7938 55.3236 55.4098 55.1018 55.4098 54.5549Z" fill="#050606"/>
<path d="M55.4098 54.5549C55.4098 54.0081 55.7938 53.343 56.2674 53.0695C56.7411 52.796 57.1251 53.0178 57.1251 53.5648C57.1251 54.1117 56.7411 54.7767 56.2674 55.0501C55.7938 55.3236 55.4098 55.1018 55.4098 54.5549Z" fill="#050606"/>
<path d="M56.8971 53.0256L57.6362 53.4107L56.476 55.5254L55.6106 55.0752L55.8299 53.8843L56.8971 53.0256" fill="#050606"/>
<path d="M56.1387 54.9332C56.1387 54.3862 56.5227 53.7211 56.9963 53.4477C57.47 53.1743 57.8539 53.396 57.8539 53.9429C57.8539 54.4898 57.47 55.1549 56.9963 55.4282C56.5227 55.7018 56.1387 55.48 56.1387 54.9332" fill="#6C7072"/>
<path d="M56.1387 54.9332C56.1387 54.3862 56.5227 53.7211 56.9963 53.4477C57.47 53.1743 57.8539 53.396 57.8539 53.9429C57.8539 54.4898 57.47 55.1549 56.9963 55.4282C56.5227 55.7018 56.1387 55.48 56.1387 54.9332" fill="#6C7072"/>
<path d="M59.8312 55.7315C59.8312 56.4405 60.6869 57.0151 61.7424 57.0151C62.798 57.0151 63.6538 56.4405 63.6538 55.7315C63.6538 55.0225 62.798 53.8479 61.7424 53.8479C60.6869 53.8479 59.8312 55.0225 59.8312 55.7315Z" fill="#D6D8D5"/>
<path d="M60.3402 54.7898C60.3402 55.3099 60.968 55.7316 61.7424 55.7316C62.5169 55.7316 63.1447 55.3099 63.1447 54.7898C63.1447 54.2696 62.5169 53.8479 61.7424 53.8479C60.968 53.8479 60.3402 54.2696 60.3402 54.7898Z" fill="#E8F2F8"/>
<path d="M61.7424 44.682C61.2688 44.682 60.8848 45.0712 60.8848 45.5514V53.9204C60.8848 54.4005 61.2688 54.7898 61.7424 54.7898C62.216 54.7898 62.6 54.4005 62.6 53.9204V45.5514C62.6 45.0712 62.216 44.682 61.7424 44.682Z" fill="#D6D8D5"/>
<path d="M48.2595 43.7728L64.3314 53.096C64.9856 53.4754 65.7954 53.4644 66.4391 53.0675L78.9783 45.3348L62.1036 35.2916L48.2595 43.7728" fill="#F9AC1B"/>
<path d="M67.801 23.0482L79.1226 29.3628C80.2793 29.9609 80.937 31.095 80.8087 32.2703L78.9783 45.3349C78.8571 46.4455 78.1246 47.4331 77.0181 47.9777L66.1113 53.3457C65.3715 53.7097 64.4642 53.2206 64.4967 52.4752L64.4994 52.4115C64.5566 51.0988 65.2758 49.8771 66.4611 49.0789L72.7727 44.8286C73.2657 44.4967 73.2311 43.7602 72.7092 43.4758L61.3889 36.9251C61.1352 36.7869 60.5791 37.0449 60.3357 37.2005L49.0397 43.7694C48.6213 44.0411 48.0637 43.7745 48.0123 43.2784L47.8103 41.3296C47.7199 40.4588 48.3838 39.8606 49.1293 39.4018L58.9591 33.6133L62.9083 24.4545C63.7278 22.7872 66.0212 22.1279 67.801 23.0482" fill="#F9AC1B"/>
<path d="M62.5638 3.58009C61.9958 4.22127 61.2398 4.30589 61.0633 4.32101L60.1128 6.02192L56.5667 13.699C56.5178 13.8426 56.5399 14.0034 56.626 14.1288L62.0892 22.0615C62.6434 22.8674 62.4387 23.97 61.6356 24.5242C60.8297 25.0784 59.728 24.8754 59.1729 24.0695L53.7095 16.1369C52.986 15.0849 52.8032 13.7392 53.2225 12.5333L57.9918 5.02938L57.9708 5.00641L58.2531 4.43692C58.476 3.98707 58.6982 3.53626 58.9212 3.08641L59.6151 1.03241C59.9634 0.718473 60.467 -0.327381 61.137 0.10237C61.5619 -0.235497 62.475 0.99412 63.0531 1.52437C63.0784 1.62946 63.3224 2.72404 62.5638 3.58009Z" fill="#E6986C"/>
<path d="M63.0935 21.2123L57.8578 15.5857C57.6813 15.826 57.4858 16.0541 57.2589 16.2625C56.4726 16.9846 55.6016 17.3665 54.6126 17.5576C54.4931 17.5808 54.4475 17.7283 54.5305 17.8174L59.4603 28.1337C60.3894 29.1321 62.527 25.1114 63.3271 24.367C64.1254 23.6242 64.0226 22.2108 63.0935 21.2123" fill="#393A3C"/>
<path d="M50.2928 47.4858C49.4563 47.5175 48.6369 47.0737 48.2285 46.2802C47.6661 45.1877 48.0958 43.8458 49.1884 43.2833L60.0928 37.6691C61.1849 37.1065 62.5274 37.5362 63.0897 38.629C63.6521 39.7215 63.8892 41.7302 62.7967 42.2927L51.8924 47.9068C51.5933 48.061 50.6084 47.4739 50.2928 47.4858Z" fill="#D14621"/>
<path d="M47.5708 67.463C48.6415 66.3758 54.3749 60.0089 54.2406 65.2081C54.2246 65.8306 54.1879 66.486 53.8535 67.0113C53.3007 67.88 52.1564 68.1004 51.2586 68.6045C50.723 68.9053 50.2616 69.3206 49.7534 69.6659C49.2453 70.0112 48.6596 70.2932 48.0456 70.2704C47.4317 70.2476 46.8005 69.8404 46.6902 69.236C46.5669 68.5597 47.0883 67.9528 47.5708 67.463" fill="#393A3C"/>
<path d="M52.9814 60.9861C52.8102 60.8699 52.6367 60.7572 52.4575 60.6537C52.3873 60.613 52.2794 60.5751 52.2141 60.5543C52.1951 60.5489 52.1804 60.5446 52.1716 60.542C52.0165 60.5693 51.8624 60.5824 51.7106 60.5801C51.6986 60.6246 51.6884 60.67 51.6807 60.7164L51.1991 63.6027C51.0709 64.3701 51.5905 65.0964 52.3593 65.2249C53.128 65.3532 53.8551 64.835 53.9831 64.0674L54.3253 62.0164C53.8874 61.6599 53.4494 61.3036 52.9814 60.9861Z" fill="white"/>
<path d="M63.4484 38.0726L60.2627 37.1811L59.4276 38.8575L58.6096 39.2591C58.7911 39.8554 57.7527 41.6075 57.7953 42.2006C59.4671 43.1472 61.3442 43.9671 60.4396 45.1927C58.9319 47.2354 54.4356 48.5266 53.488 49.2789C53.1111 49.5781 52.8458 49.9927 52.7305 50.46L50.8921 61.5911C50.6611 62.6874 51.4974 63.7184 52.6178 63.7184H53.466C54.2052 63.7184 54.8452 63.2046 55.0048 62.4827L56.5961 53.0457L70.3102 45.9573C71.1796 45.4225 71.737 44.5006 71.8065 43.4822L71.9605 39.299L63.4484 38.0726" fill="#D14621"/>
<path d="M61.092 55.6317C60.6604 55.6317 60.2247 55.4999 59.8491 55.2262L49.1498 47.4302C48.2061 46.7426 47.9986 45.4203 48.6862 44.4767C49.3733 43.5334 50.6956 43.3251 51.6396 44.013L62.3387 51.809C63.2825 52.4967 65.6334 53.7692 64.9457 54.713C64.5321 55.2807 61.7449 55.6317 61.092 55.6317" fill="#D14621"/>
<path d="M65.7078 54.2333L64.8341 53.4567L64.833 53.4572C64.7082 53.337 64.5402 53.2803 64.3436 53.3132C63.8884 53.3893 63.3887 53.8576 62.9058 54.1456C62.3963 54.4494 61.901 54.553 61.4112 54.6733C60.9216 54.7936 60.4112 54.9428 59.9071 55.3192C58.9218 56.0549 58.2067 58.0798 58.8661 58.672C58.9222 58.7491 58.9935 58.8061 59.0747 58.8471L59.9676 59.597L61.2904 57.8354C61.3307 57.7991 61.3712 57.7629 61.4113 57.7264C61.901 57.2813 62.3963 56.8128 62.9058 56.5285C63.3888 56.2587 63.8884 56.15 64.3436 55.7006C64.6086 55.4391 64.8217 55.0751 64.9457 54.713L65.7078 54.2333" fill="#6C7072"/>
<path d="M60.6972 55.9934C59.7119 56.729 58.9968 58.7539 59.6564 59.3462C59.8663 59.6351 60.2801 59.6617 60.6973 59.4914C61.2014 59.2856 61.7118 58.8456 62.2015 58.4005C62.6912 57.9554 63.1865 57.487 63.6959 57.2025C64.179 56.9327 64.6786 56.8242 65.1339 56.3747C65.5102 56.003 65.7862 55.4245 65.8429 54.9385L65.8434 54.9321C65.8451 54.9161 65.8457 54.9039 65.8469 54.8913C65.8491 54.8665 65.8513 54.8418 65.8521 54.8177C65.8528 54.8002 65.8522 54.7834 65.8523 54.7661C65.8522 54.7491 65.8528 54.7316 65.8521 54.7149C65.8513 54.6919 65.8491 54.6698 65.8469 54.6474C65.8457 54.6362 65.8451 54.6246 65.8438 54.6136L65.8424 54.6052C65.7862 54.1842 65.5102 53.9243 65.1339 53.9873C64.6786 54.0635 64.179 54.5316 63.6959 54.8197C63.1864 55.1235 62.6911 55.2271 62.2015 55.3474C61.7118 55.4676 61.2014 55.6169 60.6972 55.9934" fill="#393A3C"/>
<path d="M61.6984 9.27167C62.5772 7.49466 69.7737 7.10425 69.3741 12.1176C69.1087 14.5075 67.3226 15.3817 67.483 17.6833C67.1648 17.8897 65.9562 17.7035 65.2631 17.4078C64.8825 16.1703 61.1552 10.4517 61.6984 9.27167Z" fill="#1A181A"/>
<path d="M74.8 24.4544C74.9962 28.081 73.7939 34.7425 73.928 36.2673C74.0745 37.9183 72.6052 35.2526 72.1018 40.6921C72.9345 41.0949 71.5686 41.3439 69.4037 41.3525C64.9884 41.3717 57.2482 40.3895 58.0445 37.6694C58.2062 34.5617 57.2539 23.5748 58.4312 20.7551C60.1961 19.125 63.6293 18.1967 63.6293 18.1967L67.3277 18.19C67.3277 18.19 70.0708 19.1758 72.2014 20.5273C72.4923 20.712 72.7709 20.9025 73.0303 21.0987L74.8 24.4544" fill="#393A3C"/>
<path d="M68.0297 18.786C67.1095 18.5094 67.5647 15.2512 67.4084 14.5716C67.4084 14.5716 63.5482 16.3093 63.544 16.4018C63.5402 16.4896 63.3916 18.0252 63.3192 18.3399C63.2512 18.3627 63.1403 18.413 63.0405 18.4444C62.9512 24.5638 65.6887 20.2219 68.0297 18.786" fill="#E6986C"/>
<path d="M63.3192 18.34C63.3224 18.326 62.7652 19.6853 64.2883 20.0363C66.4101 20.5252 67.6256 18.3959 67.6256 18.3959C67.7176 18.56 67.8564 18.6973 68.0297 18.7861C66.5416 19.8846 64.82 21.8314 63.5015 23.0702C62.475 20.7094 62.5332 19.786 62.9122 18.4654C63.0121 18.4339 63.2513 18.3628 63.3192 18.34" fill="#D14621"/>
<path d="M63.7243 17.7813C62.7965 17.6711 62.3887 16.6023 62.0926 15.9731C61.1512 13.9718 61.0886 10.7969 62.9113 9.53635C63.0568 9.43575 63.7903 9.01309 64.7364 9.04678C66.4925 9.10957 68.0487 10.5994 67.7259 12.4926C67.5593 13.469 67.4167 15.295 66.9359 16.0746C66.4036 16.7912 64.8055 17.9098 63.7243 17.7813" fill="#E6986C"/>
<path d="M62.3602 9.0439C64.221 7.97402 69.938 10.1488 68.1344 12.5611C67.3176 13.2592 67.8027 14.0838 66.9649 14.0257C67.1648 12.8249 66.7007 12.8313 66.9082 12.0418C67.3272 9.33142 65.1341 10.2411 63.6758 10.3088C62.6955 10.1078 62.3042 9.92167 61.9075 10.7582C61.8817 9.97183 61.8956 9.40052 62.3602 9.0439Z" fill="#1A181A"/>
<path d="M70.0511 42.3061L68.4897 44.2343C66.2655 44.4958 66.4325 45.3616 65.0395 46.2359C64.8554 46.3212 64.9895 46.5016 65.1205 46.5583C65.5534 46.9365 66.4545 46.0051 66.8211 45.8545C67.0224 46.2759 66.1918 46.7654 65.9912 47.0296C65.6657 46.7239 65.3564 46.6335 65.1193 47.0898C65.5292 47.3216 66.5151 48.5441 67.0685 48.2182C67.5915 48.7194 68.2707 47.7784 68.6556 47.5214L69.7197 45.6345L70.9909 43.9111L70.0511 42.3061" fill="#E6986C"/>
<path d="M67.5649 13.2714C68.5991 11.446 69.0782 14.3102 67.7096 14.9141C67.3085 15.0672 67.1912 14.682 67.1912 14.682C67.1912 14.682 67.4247 13.6454 67.5649 13.2714Z" fill="#E6986C"/>
<path d="M72.6545 20.7693C73.8281 21.627 74.5378 23.6592 75.1846 25.563C76.7243 30.0944 77.4121 32.5329 77.0734 35.5132C76.8297 37.6578 73.7936 43.4383 70.4952 45.6235C69.9354 45.8728 69.0772 44.1148 68.3823 43.2657L72.7231 35.1365C72.7231 35.1365 70.4833 29.2948 69.8843 27.0073C68.3212 21.0387 71.1489 19.6691 72.6545 20.7693" fill="#393A3C"/>
<path d="M8.80334 59.9716L29.6109 71.472L41.5948 64.776L8.80334 59.9716Z" fill="#6C7072"/>
<path d="M45.9593 95.8612C45.6393 96.0459 45.1205 96.0459 44.8005 95.8612C44.4806 95.6762 44.4806 95.3766 44.8005 95.192C45.1205 95.0072 45.6393 95.0072 45.9593 95.192C46.2794 95.3766 46.2794 95.6762 45.9593 95.8612Z" fill="#D6D8D5"/>
<path d="M46.1995 80.1533V95.384C46.1995 95.4039 46.1945 95.4236 46.1871 95.4434C46.1648 95.4854 46.1203 95.5151 46.0683 95.5151H44.6912C44.6393 95.5151 44.5947 95.4854 44.5725 95.4434C44.5651 95.4236 44.5602 95.4039 44.5602 95.384V80.1533C44.5602 80.0814 44.6195 80.0221 44.6912 80.0221H46.0683C46.1401 80.0221 46.1995 80.0814 46.1995 80.1533Z" fill="#D6D8D5"/>
<path d="M44.5602 83.3781H46.1995V80.0222H44.5602V83.3781Z" fill="#C2C3C1"/>
<path d="M2.33571 71.6633C2.01575 71.8479 1.49692 71.8479 1.17684 71.6633C0.856908 71.4785 0.856908 71.1789 1.17684 70.9942C1.49692 70.8094 2.01575 70.8094 2.33571 70.9942C2.65575 71.1789 2.65575 71.4785 2.33571 71.6633Z" fill="#D6D8D5"/>
<path d="M2.57579 55.9555V71.1863C2.57579 71.2062 2.57086 71.2259 2.56338 71.2456C2.54121 71.2878 2.49665 71.3174 2.44475 71.3174H1.06757C1.0156 71.3174 0.971106 71.2878 0.948861 71.2456C0.941496 71.2259 0.936523 71.2062 0.936523 71.1863V55.9555C0.936523 55.8838 0.995895 55.8244 1.06757 55.8244H2.44475C2.51642 55.8244 2.57579 55.8838 2.57579 55.9555Z" fill="#D6D8D5"/>
<path d="M72.4565 80.3685C72.1365 80.5533 71.6177 80.5533 71.2976 80.3685C70.9778 80.1838 70.9778 79.8842 71.2976 79.6994C71.6177 79.5147 72.1365 79.5147 72.4565 79.6994C72.7765 79.8842 72.7765 80.1838 72.4565 80.3685Z" fill="#D6D8D5"/>
<path d="M72.6966 64.6608V79.8916C72.6966 79.9114 72.6917 79.9311 72.6842 79.9508C72.662 79.9929 72.6174 80.0226 72.5655 80.0226H71.1883C71.1364 80.0226 71.0919 79.9929 71.0696 79.9508C71.0622 79.9311 71.0574 79.9114 71.0574 79.8916V64.6608C71.0574 64.5891 71.1167 64.5296 71.1883 64.5296H72.5655C72.6372 64.5296 72.6966 64.5891 72.6966 64.6608" fill="#D6D8D5"/>
<path d="M71.877 67.8855C71.6674 67.8855 71.4578 67.8391 71.2971 67.7464C71.1364 67.6549 71.0574 67.5338 71.0574 67.4127C71.0574 67.383 71.0622 67.3558 71.0722 67.3261C71.0622 67.3087 71.0574 67.289 71.0574 67.2692V64.6607C71.0574 64.589 71.1167 64.5296 71.1883 64.5296H72.5655C72.6372 64.5296 72.6966 64.589 72.6966 64.6607V67.2692C72.6966 67.289 72.6917 67.3087 72.6817 67.3261C72.6917 67.3558 72.6966 67.383 72.6966 67.4127C72.6966 67.5338 72.6174 67.6549 72.4568 67.7464C72.296 67.8391 72.0865 67.8855 71.877 67.8855Z" fill="#C2C3C1"/>
<path d="M0.245933 52.94L0.151978 55.0597L5.10699 58.0027L4.85885 56.2226L0.245933 52.94Z" fill="#D6D8D5"/>
<path d="M74.4261 64.2081V62.4196L69.0348 65.8857L69.3951 66.8455L74.4261 64.2081" fill="#D6D8D5"/>
<path d="M0.898599 54.8117L26.1561 40.0467C27.9222 39.0144 30.105 39.0033 31.8815 40.018L73.5754 63.8315C74.5857 64.4086 74.5892 65.864 73.5817 66.4458L47.9143 81.2693C46.1434 82.2919 43.9613 82.2918 42.1905 81.2688L0.905329 57.4182C-0.0961792 56.8397 -0.0998431 55.3954 0.898599 54.8117" fill="#D6D8D5"/>
<path d="M0.989612 52.0676L26.247 37.3027C28.0132 36.2703 30.196 36.2593 31.9724 37.2739L73.6664 61.0875C74.6767 61.6645 74.6802 63.1199 73.6726 63.7018L48.0053 78.5252C46.2343 79.5479 44.0523 79.5477 42.2814 78.5248L0.996229 54.6742C-0.00520423 54.0957 -0.0089428 52.6514 0.989612 52.0676Z" fill="#F9AC1B"/>
<path d="M47.7624 57.6802L34.9407 50.2775C34.359 49.9416 34.359 49.397 34.9407 49.0609L39.9811 46.1508C40.563 45.8149 41.5063 45.8149 42.0882 46.1508L54.9098 53.5535C55.4917 53.8894 55.4917 54.4342 54.9098 54.7701L49.8694 57.6802C49.2876 58.0161 48.3442 58.0161 47.7624 57.6802" fill="#6C7072"/>
<path d="M34.5044 48.7457V49.9616L48.8159 57.9324L55.3462 54.162V53.2383L34.5044 48.7457Z" fill="#6C7072"/>
<path d="M47.7624 56.7566L34.9407 49.3539C34.359 49.0179 34.359 48.4732 34.9407 48.1374L39.9811 45.2271C40.563 44.8913 41.5063 44.8913 42.0882 45.2271L54.9098 52.6299C55.4917 52.9659 55.4917 53.5106 54.9098 53.8465L49.8694 56.7566C49.2876 57.0925 48.3442 57.0925 47.7624 56.7566" fill="#393A3C"/>
<path d="M50.5034 54.9438L38.0806 47.7712L39.1723 47.141L51.595 54.3136L50.5034 54.9438" fill="#393A3C"/>
<path d="M48.6313 56.0248L36.2085 48.8521L37.2999 48.222L49.7228 55.3945L48.6313 56.0248Z" fill="#393A3C"/>
<path d="M38.3278 47.7712L50.5034 54.801L51.3478 54.3136L39.1722 47.2837L38.3278 47.7712Z" fill="white"/>
<path d="M36.4558 48.8523L48.6314 55.8821L49.4757 55.3945L37.3002 48.3649L36.4558 48.8523" fill="white"/>
<path d="M40.1497 46.5438L52.3253 53.5735L53.1696 53.086L40.994 46.0562L40.1497 46.5438" fill="white"/>
<path d="M17.9462 49.1983C17.9462 50.0134 16.702 50.6742 15.1674 50.6742C13.6326 50.6742 12.3885 50.0134 12.3885 49.1983C12.3885 48.3831 13.6326 47.7223 15.1674 47.7223C16.702 47.7223 17.9462 48.3831 17.9462 49.1983Z" fill="#D6D8D5"/>
<path d="M17.9462 48.4665C17.9462 49.2817 16.702 49.9424 15.1674 49.9424C13.6326 49.9424 12.3885 49.2817 12.3885 48.4665C12.3885 47.6513 13.6326 46.9905 15.1674 46.9905C16.702 46.9905 17.9462 47.6513 17.9462 48.4665Z" fill="#393A3C"/>
<path d="M28.711 64.3015L23.8364 61.4872C23.5669 61.3316 23.5669 60.9426 23.8364 60.787L29.3664 57.5941C29.5842 57.4684 29.8525 57.4684 30.0701 57.5941L34.4957 60.1493C34.9648 60.4201 34.9648 61.0971 34.4957 61.3678L29.4145 64.3015C29.1968 64.4273 28.9285 64.4273 28.711 64.3015" fill="#6C7072"/>
<path d="M23.6343 60.1202V61.1939L28.5492 63.6553L33.0632 61.7931L34.8406 60.6629V59.6918L29.1582 59.931L25.6795 60.9479L23.6343 60.1202" fill="#6C7072"/>
<path d="M28.5262 63.178L23.8364 60.4704C23.5669 60.3146 23.5669 59.9257 23.8364 59.77L29.3664 56.5772C29.5842 56.4515 29.8525 56.4515 30.0701 56.5772L34.4957 59.1324C34.9648 59.4032 34.9648 60.0802 34.4957 60.351L29.5993 63.178C29.2672 63.3697 28.8582 63.3697 28.5262 63.178" fill="#D6D8D5"/>
<path d="M41.1479 48.5252V63.1988C41.1479 63.6061 40.9833 63.8739 40.7292 63.963L39.8827 64.5464C39.8277 64.5832 39.7613 64.5763 39.7156 64.5396C39.6813 64.5167 39.6584 64.4755 39.6584 64.4275V63.6267L34.5628 60.6841L22.0377 53.4538C21.4223 53.0991 20.9211 52.2342 20.9211 51.5203V37.4622L20.0265 36.8308C20.0425 36.8216 20.0585 36.8124 20.0744 36.8033L20.8594 36.364C21.2483 36.0482 21.5916 35.9429 22.0377 36.1992L40.0313 46.5895C40.4685 46.8412 40.8482 47.3537 41.0312 47.8846C41.1068 48.0996 41.1479 48.3193 41.1479 48.5252" fill="#6C7072"/>
<path d="M41.1479 48.5252V63.1988C41.1479 63.6061 40.9833 63.8739 40.7291 63.963L39.8827 64.5464C39.8276 64.5832 39.7613 64.5763 39.7155 64.5396C39.512 64.7433 39.1848 64.7616 38.8141 64.5487L34.3065 61.9472L34.5627 60.6841L36.7434 49.9529L39.7774 48.4909L41.0312 47.8846C41.1067 48.0996 41.1479 48.3193 41.1479 48.5252Z" fill="#6C7072"/>
<path d="M39.9308 49.23V63.9035C39.9308 64.1872 39.8507 64.4047 39.7156 64.5396C39.512 64.7433 39.1849 64.7616 38.8142 64.5487L34.3066 61.9472L20.8204 54.1585C20.2049 53.8039 19.7039 52.939 19.7039 52.225V37.5515C19.7039 37.1969 19.8273 36.9475 20.0265 36.8308C20.0425 36.8216 20.0585 36.8124 20.0745 36.8033C20.2736 36.7141 20.5345 36.7393 20.8204 36.9062L38.8142 47.2942C39.2236 47.5299 39.5851 47.9943 39.7774 48.4909C39.8757 48.738 39.9308 48.992 39.9308 49.23Z" fill="#D6D8D5"/>
<path d="M93.6327 79.9713L91.8239 89.0376H79.841L78.0323 79.9713H93.6327Z" fill="#DD3F6B"/>
<path d="M91.8239 89.0375C91.8239 90.5704 89.502 92.2752 86.1286 92.3701C86.0315 92.3724 85.932 92.3746 85.8326 92.3746C82.301 92.3746 79.8411 90.6156 79.8411 89.0375C79.8411 87.4594 82.301 85.6981 85.8326 85.6981C86.7437 85.6981 87.5825 85.8157 88.3263 86.0169C90.4697 86.5935 91.8239 87.8664 91.8239 89.0375" fill="#DD3F6B"/>
<path d="M93.6327 79.9713L91.824 89.0376C91.824 90.5706 89.5021 92.2753 86.1287 92.3702C86.5492 91.9565 86.9088 91.4795 87.1823 90.9685C87.5102 90.3558 87.7453 89.7068 87.9127 89.0376C88.1613 88.061 88.2676 87.0412 88.3263 86.017C88.3557 85.4993 88.3738 84.9815 88.3874 84.4684C88.4304 82.9693 88.4755 81.4703 88.5185 79.9713H93.6327" fill="#F9AC1B"/>
<path d="M85.8326 85.1174C81.5314 85.1174 78.0323 82.8086 78.0323 79.9705C78.0323 77.1324 81.5314 74.8236 85.8326 74.8236C90.1335 74.8236 93.6327 77.1324 93.6327 79.9705C93.6327 82.8086 90.1335 85.1174 85.8326 85.1174" fill="#F9AC1B"/>
<path d="M85.8326 83.3087C82.3017 83.3087 79.8411 81.5495 79.8411 79.9705C79.8411 78.3917 82.3017 76.6324 85.8326 76.6324C89.3635 76.6324 91.8239 78.3917 91.8239 79.9705C91.8239 81.5495 89.3635 83.3087 85.8326 83.3087Z" fill="#EC8117"/>
<path d="M83.6053 78.7402L83.8028 78.4736C83.7625 78.5755 83.6995 78.6668 83.6053 78.7402ZM87.3808 71.2425C87.6889 67.0893 86.7365 62.8564 84.715 59.2178C84.2981 58.4673 83.1628 58.7165 83.1148 59.5737C82.8943 63.5188 83.4483 67.5074 84.7472 71.2394C83.787 69.504 82.7785 67.7467 81.2951 66.43C80.2035 65.461 78.7976 64.76 77.3637 64.6477C76.7167 64.5969 76.3257 65.3406 76.7398 65.8405C78.9725 68.5357 80.8888 71.4927 82.4402 74.6303C81.1672 74.2491 79.7944 74.199 78.508 74.5353C80.5017 76.279 86.61 84.3143 88.9431 79.1621C89.27 78.44 89.3645 77.6406 89.3126 76.8497C89.1909 74.9928 90.0374 73.3691 90.8674 71.7938C91.8664 69.8982 92.8653 68.0027 93.8641 66.1072C90.9949 66.4883 88.4089 68.5367 87.3808 71.2425" fill="#D14621"/>
<path d="M58.1781 25.7297C58.1781 25.7297 51.8745 14.5113 52.4087 13.1224C52.9429 11.7334 58.9212 3.08646 58.9212 3.08646L60.7424 5.10926L57.4303 14.0839L61.704 19.2125L58.1781 25.7297" fill="#393A3C"/>
</svg>
