<svg width="74" height="56" viewBox="0 0 74 56" fill="none" xmlns="http://www.w3.org/2000/svg">
<g clip-path="url(#clip0)">
<path d="M73.0435 24.0457H46.475V17.1766H73.0435V24.0457Z" fill="#E669A2"/>
<path d="M69.5926 24.0457H46.475V6.86548H69.5926V24.0457Z" fill="#F3BE26"/>
<path d="M60.0416 24.0457H46.475V0H60.0416V24.0457Z" fill="#EE9C34"/>
<path d="M62.7107 24.0457H46.475V2.68311H62.7107V24.0457Z" fill="#F3BC87"/>
<path d="M46.4712 2.68719V24.0435H60.0401V2.68719H46.4712Z" fill="#E3721C"/>
<path d="M32.8708 24.0457H46.475V27.4806H32.8708V24.0457Z" fill="#AD1B02"/>
<path d="M46.4712 6.86169V24.0435H62.7184V6.86169H46.4712Z" fill="#E88D14"/>
<path d="M46.4712 6.86169V24.0435H60.0401V6.86169H46.4712Z" fill="#D85604"/>
<path d="M54.9589 24.0457H46.475V13.7338H54.9589V24.0457Z" fill="#C14303"/>
<path d="M46.4712 17.1815V24.0435H69.6004V17.1815H46.4712Z" fill="#DB4E18"/>
<path d="M46.4712 17.1815V24.0435H62.7184V17.1815H46.4712Z" fill="#D1390D"/>
<path d="M46.4712 17.1815V24.0435H60.0401V17.1815H46.4712Z" fill="#C22303"/>
<path d="M46.4712 17.1815V24.0435H54.9673V17.1815H46.4712Z" fill="#AD1B02"/>
<path d="M49.4329 36.983C47.1182 37.3986 45.8836 39.1652 45.8836 42.2308C45.8836 45.3484 47.5297 47.4267 49.9473 47.4267C51.1304 47.4267 52.1592 47.0111 54.3197 45.9199C54.3197 48.4659 54.3197 48.4659 54.3197 48.4659C51.6963 49.7129 50.1531 50.0247 48.0955 50.0247C45.7808 50.0247 44.1347 49.4531 42.8487 48.0502C41.5113 46.6993 40.7912 44.9327 40.7912 42.9063C40.7912 38.4898 44.0833 35.4242 48.8671 35.4242C52.0049 35.4242 54.2168 36.931 54.2168 39.0613C54.2168 40.4642 53.188 41.4514 51.6963 41.4514C50.9247 41.4514 50.3074 41.1916 49.4329 40.724" fill="black"/>
<path d="M37.8592 42.9063C39.9682 40.2564 40.7398 39.1652 40.7398 37.8663C40.7398 36.5673 39.711 35.4242 38.2707 35.4242C37.4477 35.4242 36.6761 35.8918 36.316 36.3075C36.316 41.7632 36.316 41.7632 36.316 41.7632C32.8696 46.4395 32.8696 46.4395 32.8696 46.4395C32.8696 35.8399 32.8696 35.8399 32.8696 35.8399C29.5775 35.8399 29.5775 35.8399 29.5775 35.8399C24.1249 44.9327 24.1249 44.9327 24.1249 44.9327C24.1249 35.8399 24.1249 35.8399 24.1249 35.8399C22.2731 35.8399 22.2731 35.8399 22.2731 35.8399C17.2835 36.983 17.2835 36.983 17.2835 36.983C17.2835 38.2819 17.2835 38.2819 17.2835 38.2819C20.0098 38.5417 20.0098 38.5417 20.0098 38.5417C20.0098 49.8168 20.0098 49.8168 20.0098 49.8168C23.4562 49.8168 23.4562 49.8168 23.4562 49.8168C28.703 41.0877 28.703 41.0877 28.703 41.0877C28.703 49.8168 28.703 49.8168 28.703 49.8168C32.5609 49.8168 32.5609 49.8168 32.5609 49.8168" fill="black"/>
<path d="M6.8414 48.0502C7.25291 48.0502 7.35579 48.0502 7.61298 48.0502C10.3907 48.0502 11.9339 46.3355 11.9339 42.9063C11.9339 40.0485 10.6993 38.4897 8.38457 38.4897C8.07593 38.4897 7.61298 38.5417 6.8414 38.6976V48.0502ZM6.8414 54.1814C9.10472 54.7009 9.10472 54.7009 9.10472 54.7009C9.10472 55.9999 9.10472 55.9999 9.10472 55.9999C0.205756 55.9999 0.205757 55.9999 0.205757 55.9999C0.205757 54.7009 0.205757 54.7009 0.205757 54.7009C2.26332 54.1814 2.26332 54.1814 2.26332 54.1814C2.26332 38.4897 2.26332 38.4897 2.26332 38.4897C-2.78639e-07 38.4897 0 38.4897 0 38.4897C0 37.1908 0 37.1908 0 37.1908C5.4011 35.5281 5.4011 35.5281 5.4011 35.5281C6.8414 35.5281 6.8414 35.5281 6.8414 35.5281C6.8414 37.3986 6.8414 37.3986 6.8414 37.3986C9.36191 35.8398 10.2364 35.58 11.5738 35.58C14.5573 35.58 16.8206 38.3858 16.8206 42.2827C16.8206 46.7512 13.7857 49.8168 9.15615 49.8168C8.64176 49.8168 7.7673 49.7648 6.8414 49.7129" fill="black"/>
</g>
<defs>
<clipPath id="clip0">
<rect width="73.0435" height="56" fill="white"/>
</clipPath>
</defs>
</svg>
