<svg width="48" height="48" viewBox="0 0 48 48" fill="none" xmlns="http://www.w3.org/2000/svg">
<circle cx="24" cy="24" r="22" fill="white" stroke="#D93954" stroke-width="4" stroke-dasharray="12 2"/>
<circle cx="24" cy="24" r="16" fill="#D93954"/>
<path d="M24.0001 29.6154L19.8278 32.3847C18.7478 33.1024 18.157 32.6685 18.5031 31.4224L19.8462 26.5993L15.9231 23.4862C14.9101 22.6924 15.1385 21.9839 16.4308 21.9308L21.4362 21.7208L23.1808 17.027C23.6424 15.8108 24.367 15.8131 24.8193 17.027L26.5639 21.7208L31.5693 21.9308C32.8639 21.9839 33.0878 22.6831 32.0747 23.4862L28.1539 26.5993L29.5016 31.4224C29.8501 32.6708 29.2547 33.1 28.177 32.3847L24.0001 29.6154Z" fill="white"/>
</svg>
